<?xml version="1.0" standalone="no"?><!DOCTYPE svg PUBLIC "-//W3C//DTD SVG 1.1//EN" "http://www.w3.org/Graphics/SVG/1.1/DTD/svg11.dtd"><svg t="1516961444381" class="icon" style="" viewBox="0 0 1024 1024" version="1.1" xmlns="http://www.w3.org/2000/svg" p-id="782" xmlns:xlink="http://www.w3.org/1999/xlink" width="200" height="200"><defs><style type="text/css"></style></defs><path d="M621.87260828 713.55042323a32.17592326 32.17592326 0 0 0-32.17592327-32.17592326h-509.77157331V111.79624351h863.89211784v247.70590533a32.17592326 32.17592326 0 0 0 64.35184652 0V111.79624351c0-35.48306771-28.87034992-64.35184654-64.35184652-64.35184653H79.9251117c-35.48149662 0-64.35184654 28.86877882-64.35184652 64.35184653v569.57825646c0 35.48149662 28.87034992 64.35184654 64.35184652 64.35184652h509.77157331a32.17592326 32.17592326 0 0 0 32.17592327-32.17592326z m2.61429377 69.9496402h-225.23146286v128.70369306h-217.18748202v64.35184653h659.60642689v-64.35184653h-217.18748201z" p-id="783"></path><path d="M970.86825721 501.26159982c-28.90805605 0-46.97559108-31.29925505-32.52156308-56.33300314a37.54905107 37.54905107 0 0 0-13.74703751-51.29608859l-50.37857205-29.08716034a37.54905107 37.54905107 0 0 0-51.2960886 13.74703753c-14.45559911 25.03374811-50.58909811 25.03374811-65.04469723 0a37.56476198 37.56476198 0 0 0-51.30394404-13.74703753L656.19464049 393.63407916a37.54905107 37.54905107 0 0 0-13.74703752 51.29608861c14.45402802 25.03374811-3.61193593 56.33300315-32.52156308 56.33300314a37.56476198 37.56476198 0 0 0-37.55690651 37.55690654v58.17432062a37.56476198 37.56476198 0 0 0 37.55690651 37.55690653c28.90962716 0 46.97559108 31.29925505 32.52156308 56.33300317a37.54905107 37.54905107 0 0 0 13.74703752 51.29608858l50.38014314 29.08716032a37.54905107 37.54905107 0 0 0 51.29608858-13.74703751c14.45402802-25.03374811 50.58909811-25.03374811 65.04312614 0a37.54905107 37.54905107 0 0 0 51.29608859 13.74703751l50.38014312-29.08716032a37.54905107 37.54905107 0 0 0 13.74703755-51.29608858c-14.45402802-25.03374811 3.61193593-56.33300315 32.52156306-56.33300317a37.56476198 37.56476198 0 0 0 37.55847763-37.55690653V538.81850636a37.54905107 37.54905107 0 0 0-37.54905109-37.55690654z m-140.25434675 136.30462649c-38.47442308 22.21049938-87.67153545 9.03376752-109.88203482-29.44065557s-9.03219644-87.67153545 29.44222665-109.8820348c38.47442308-22.20892829 87.67153545-9.03219644 109.88203482 29.44222664s9.03219644 87.67153545-29.44222665 109.88203483z m-704.22538299-416.47710674h64.35184652v346.81654712h-64.35184652z m114.09569819 108.56231921h64.35184652v238.26208334h-64.35184652z m114.08627167-72.67862354h64.35184651V567.91509322h-64.35184651zM468.66933772 416.80765673h64.35184653v151.09800996h-64.35184653z" p-id="784"></path></svg>