<?xml version="1.0" standalone="no"?><!DOCTYPE svg PUBLIC "-//W3C//DTD SVG 1.1//EN" "http://www.w3.org/Graphics/SVG/1.1/DTD/svg11.dtd"><svg t="1577772379480" class="icon" viewBox="0 0 1024 1024" version="1.1" xmlns="http://www.w3.org/2000/svg" p-id="33487" xmlns:xlink="http://www.w3.org/1999/xlink" width="200" height="200"><defs><style type="text/css"></style></defs><path d="M950.528 812.352l0-0.128L567.424 148.672 567.36 148.672C562.56 131.008 540.672 117.76 514.368 117.76c-26.496 0-48.32 13.568-52.928 31.424L69.312 828.288l0.32 0.448c-8.96 8.896-7.232 30.016 4.928 49.728 12.224 20.096 30.656 31.296 42.56 26.688l0.448 0.704 793.728 0 0.448-1.024c13.248 2.048 29.568-9.6 39.744-30.336C963.392 850.624 962.624 823.744 950.528 812.352zM458.816 357.312c0-29.376 23.872-53.184 53.184-53.184 29.44 0 53.184 23.808 53.184 53.184l0 274.112c0 29.312-23.744 53.184-53.184 53.184-29.312 0-53.184-23.872-53.184-53.184L458.816 357.312zM512 835.776c-31.936 0-57.856-25.92-57.856-57.92 0-31.936 25.92-57.728 57.856-57.728s57.856 25.792 57.856 57.728C569.856 809.792 543.936 835.776 512 835.776z" p-id="33488"></path></svg>