<?xml version="1.0" standalone="no"?><!DOCTYPE svg PUBLIC "-//W3C//DTD SVG 1.1//EN" "http://www.w3.org/Graphics/SVG/1.1/DTD/svg11.dtd"><svg t="1577771958469" class="icon" viewBox="0 0 1024 1024" version="1.1" xmlns="http://www.w3.org/2000/svg" p-id="15323" xmlns:xlink="http://www.w3.org/1999/xlink" width="200" height="200"><defs><style type="text/css"></style></defs><path d="M205.799402 63.877843 84.136613 63.877843c-11.207709 0-20.27662 9.069563-20.27662 20.275789l0 121.656781c0 11.167341 9.068911 20.275789 20.27662 20.275789 11.188265 0 20.277643-9.108448 20.277643-20.275789l0-101.380992 101.385146 0c11.188265 0 20.27662-9.108448 20.27662-20.275789C226.074998 72.947406 216.986644 63.877843 205.799402 63.877843zM327.460144 104.430444l121.661765 0c11.168821 0 20.27662-9.108448 20.27662-20.275789 0-11.207249-9.107798-20.275789-20.27662-20.275789L327.460144 63.878866c-11.207709 0-20.27662 9.069563-20.27662 20.275789C307.183524 95.321996 316.252435 104.430444 327.460144 104.430444zM692.44544 63.877843 570.784698 63.877843c-11.207709 0-20.277643 9.069563-20.277643 20.275789 0 11.167341 9.069934 20.275789 20.277643 20.275789l121.661765 0c11.167798 0 20.275596-9.108448 20.275596-20.275789C712.72206 72.947406 703.614262 63.877843 692.44544 63.877843zM935.768971 63.877843 814.107206 63.877843c-11.207709 0-20.275596 9.069563-20.275596 20.275789 0 11.167341 9.067888 20.275789 20.275596 20.275789l101.385146 0 0 101.380992c0 11.167341 9.067888 20.275789 20.275596 20.275789 11.167798 0 20.27662-9.108448 20.27662-20.275789L956.044568 84.154655C956.045591 72.947406 946.936769 63.877843 935.768971 63.877843zM935.768971 307.191404c-11.207709 0-20.275596 9.069563-20.275596 20.275789l0 121.656781c0 11.168364 9.067888 20.275789 20.275596 20.275789 11.167798 0 20.27662-9.108448 20.27662-20.275789L956.045591 327.468217C956.045591 316.260967 946.936769 307.191404 935.768971 307.191404zM935.768971 550.504966c-11.207709 0-20.275596 9.069563-20.275596 20.277836l0 121.655757c0 11.167341 9.067888 20.276812 20.275596 20.276812 11.167798 0 20.27662-9.109472 20.27662-20.276812L956.045591 570.782801C956.045591 559.574528 946.936769 550.504966 935.768971 550.504966zM935.768971 793.81955c-11.207709 0-20.275596 9.067516-20.275596 20.274766l0 101.380992-101.385146 0c-11.207709 0-20.275596 9.067516-20.275596 20.274766 0 11.167341 9.067888 20.275789 20.275596 20.275789l121.661765 0c11.167798 0 20.27662-9.108448 20.27662-20.275789L956.046614 814.095339C956.045591 802.88809 946.936769 793.81955 935.768971 793.81955zM692.44544 915.476331 570.784698 915.476331c-11.207709 0-20.277643 9.067516-20.277643 20.274766 0 11.167341 9.069934 20.275789 20.277643 20.275789l121.661765 0c11.167798 0 20.275596-9.108448 20.275596-20.275789C712.72206 924.543847 703.614262 915.476331 692.44544 915.476331zM449.121909 915.476331 327.460144 915.476331c-11.207709 0-20.27662 9.067516-20.27662 20.274766 0 11.167341 9.068911 20.275789 20.27662 20.275789l121.661765 0c11.168821 0 20.27662-9.108448 20.27662-20.275789C469.398529 924.543847 460.290731 915.476331 449.121909 915.476331zM205.799402 915.476331l-101.385146 0 0-101.380992c0-11.207249-9.089378-20.274766-20.277643-20.274766-11.207709 0-20.27662 9.067516-20.27662 20.274766l0 121.656781c0 11.167341 9.068911 20.275789 20.27662 20.275789l121.662789 0c11.188265 0 20.27662-9.108448 20.27662-20.275789C226.074998 924.543847 216.986644 915.476331 205.799402 915.476331zM84.136613 712.715371c11.188265 0 20.277643-9.109472 20.277643-20.276812L104.414256 570.782801c0-11.208273-9.089378-20.277836-20.277643-20.277836-11.207709 0-20.27662 9.069563-20.27662 20.277836l0 121.655757C63.859993 703.605899 72.928904 712.715371 84.136613 712.715371zM84.136613 469.400786c11.188265 0 20.277643-9.108448 20.277643-20.275789L104.414256 327.468217c0-11.207249-9.089378-20.275789-20.277643-20.275789-11.207709 0-20.27662 9.069563-20.27662 20.275789l0 121.656781C63.859993 460.293361 72.928904 469.400786 84.136613 469.400786zM345.202954 550.504966l324.432057 0c22.375507 0 40.554263-18.176988 40.554263-40.551578 0-22.414499-18.178756-40.551578-40.554263-40.551578l-324.432057 0c-22.415417 0-40.55324 18.138102-40.55324 40.551578C304.648691 532.327978 322.787536 550.504966 345.202954 550.504966z" p-id="15324"></path></svg>