<?xml version="1.0" standalone="no"?><!DOCTYPE svg PUBLIC "-//W3C//DTD SVG 1.1//EN" "http://www.w3.org/Graphics/SVG/1.1/DTD/svg11.dtd"><svg t="1501837322446" class="icon" style="" viewBox="0 0 1024 1024" version="1.1" xmlns="http://www.w3.org/2000/svg" p-id="918" xmlns:xlink="http://www.w3.org/1999/xlink" width="200" height="200"><defs><style type="text/css"></style></defs><path d="M742.304 463.938h-185.568v-185.574h-92.804v185.59H278.364v92.782h185.568v185.57h92.804v-185.57h185.568v-92.798z" p-id="919"></path><path d="M927.882 0H92.788c-51.244 0-92.788 41.542-92.788 92.788V927.88c0 51.246 41.542 92.788 92.788 92.788h835.094c51.246 0 92.788-41.542 92.788-92.788v-835.094c-0.002-51.242-41.542-92.786-92.788-92.786z m0 881.486c0 25.622-20.772 46.394-46.394 46.394H139.184c-25.622 0-46.394-20.772-46.394-46.394v-742.304c0-25.622 20.772-46.394 46.394-46.394h742.304c25.624 0 46.394 20.772 46.394 46.394V881.486z" p-id="920"></path></svg>