<?xml version="1.0" standalone="no"?><!DOCTYPE svg PUBLIC "-//W3C//DTD SVG 1.1//EN" "http://www.w3.org/Graphics/SVG/1.1/DTD/svg11.dtd"><svg t="1566963398501" class="icon" viewBox="0 0 1024 1024" version="1.1" xmlns="http://www.w3.org/2000/svg" p-id="1761" xmlns:xlink="http://www.w3.org/1999/xlink" width="200" height="200"><defs><style type="text/css"></style></defs><path d="M912.602 820.144c-33.177 0-61.68 16.606-80.624 40.33l-82.994-71.17c37.921-49.747 61.646-113.73 61.646-182.525 0-163.55-130.443-296.258-291.688-301.003v-90.095c49.783-4.744 90.111-47.41 90.111-99.566 0-54.528-45.073-99.567-99.602-99.567-54.563 0-99.601 45.039-99.601 99.567 0 52.155 40.295 94.822 90.113 99.566v90.095c-161.281 7.116-291.688 137.453-291.688 301.002 0 68.795 23.688 132.778 61.645 182.525l-82.996 68.8c-18.978-23.726-47.446-40.33-80.657-40.33-54.528 0-99.602 45.002-99.602 99.567 0 54.492 45.074 99.566 99.602 99.566 54.563 0 99.601-45.074 99.601-99.566 0-14.234-2.372-28.468-9.454-42.702l85.368-71.101c54.527 61.611 135.186 101.94 225.297 101.94 90.114 0 170.737-40.329 225.298-101.94l85.37 71.101c-4.747 11.861-9.489 26.095-9.489 42.702 0 54.492 45.074 99.566 99.602 99.566 54.562 0 99.6-45.074 99.6-99.566 7.116-52.192-37.923-97.196-94.858-97.196z m-400.778-23.722c-90.111 0-168.398-66.354-182.632-154.059h-54.526l75.877-92.449 45.074 52.12 37.923 42.7h-61.646c16.606 63.984 73.506 111.43 139.931 111.43 80.623 0 144.676-66.425 144.676-147.012 0-80.588-64.053-146.943-144.676-146.943-47.445 0-87.74 21.351-113.836 56.866 0 0-16.606-2.372-21.35-7.116-7.116-9.49-7.116-23.654-7.116-26.027 33.211-42.701 85.366-68.726 144.638-68.726 104.38 0 187.376 85.264 187.376 189.575-2.37 104.309-85.366 189.64-189.713 189.64z m0 0" fill="" p-id="1762"></path></svg>