<?xml version="1.0" standalone="no"?><!DOCTYPE svg PUBLIC "-//W3C//DTD SVG 1.1//EN" "http://www.w3.org/Graphics/SVG/1.1/DTD/svg11.dtd"><svg t="1501837158511" class="icon" style="" viewBox="0 0 1027 1024" version="1.1" xmlns="http://www.w3.org/2000/svg" p-id="905" xmlns:xlink="http://www.w3.org/1999/xlink" width="200.5859375" height="200"><defs><style type="text/css"></style></defs><path d="M19.854 184.366c190.958-100.168 319.13-14.634 453.45 231.034l-119.666 72.948c-8.572 5.208-13.768 14.83-12.63 24.982 0.38 3.288 1.356 6.51 2.936 9.33a23.088 23.088 0 0 0 14.666 11.456l341.548 137.58c12.938 3.446 26.55-4.866 30.236-18.346l58.812-381.748c2.698-9.88-0.598-20.396-8.268-26.426-7.748-6.074-18.194-6.198-26.786-0.94l-121.918 74.282C495.346 68.268 304.828-95.588 19.846 156.63v27.77l0.008-0.034z m849.19 809.058c87.26 0 158-71.864 158-160.476V191.04c0-88.626-70.74-160.472-158-160.472H711.04v75.224h158.002c43.672 0 79.008 35.93 79.008 80.244V837.982c0 44.34-35.338 80.242-79.008 80.242H158.014c-43.594 0-79.006-35.892-79.006-80.242v-406.216H0V832.96c0.002 88.624 70.76 160.472 158.02 160.472l711.024-0.008z" p-id="906"></path></svg>