<?xml version="1.0" standalone="no"?><!DOCTYPE svg PUBLIC "-//W3C//DTD SVG 1.1//EN" "http://www.w3.org/Graphics/SVG/1.1/DTD/svg11.dtd"><svg t="1566963367733" class="icon" viewBox="0 0 1024 1024" version="1.1" xmlns="http://www.w3.org/2000/svg" p-id="1198" xmlns:xlink="http://www.w3.org/1999/xlink" width="200" height="200"><defs><style type="text/css"></style></defs><path d="M462.528 840.576l4.416 88.576H563.2a38.4 38.4 0 1 1 0 76.8H461.888a71.488 71.488 0 0 1-71.424-67.84l-3.328-66.752a385.6 385.6 0 0 1-128-73.984l-59.52 30.464c-33.92 17.408-75.52 5.12-94.528-27.84L54.4 712.192a71.488 71.488 0 0 1 23.04-95.808l56.192-36.224a387.84 387.84 0 0 1 0-147.904l-56.128-36.288A71.488 71.488 0 0 1 54.4 300.224l50.688-87.872a71.488 71.488 0 0 1 94.528-27.84l59.52 30.528a385.6 385.6 0 0 1 128-74.048l3.328-66.688C392.384 36.288 423.744 6.4 461.888 6.4H563.2c38.08 0 69.504 29.888 71.424 67.84l3.328 66.752a385.6 385.6 0 0 1 128 74.048l59.52-30.528a71.488 71.488 0 0 1 94.528 27.84l50.688 87.872a71.488 71.488 0 0 1-23.104 95.744l-56.128 36.288c4.672 24.192 7.04 48.896 7.04 73.92a38.4 38.4 0 0 1-76.8 0c0-27.84-3.648-55.168-10.816-81.472a38.4 38.4 0 0 1 16.256-42.304l74.496-48.192-45.632-79.04-79.04 40.512a38.4 38.4 0 0 1-44.8-7.104 308.864 308.864 0 0 0-140.992-81.536 38.4 38.4 0 0 1-28.608-35.2L558.208 83.2H466.944l-4.48 88.64a38.4 38.4 0 0 1-28.544 35.2c-53.568 14.08-102.144 42.24-140.992 81.536a38.4 38.4 0 0 1-44.8 7.104l-79.04-40.512-45.632 79.04 74.496 48.192a38.4 38.4 0 0 1 16.256 42.304 309.632 309.632 0 0 0 0 162.944 38.4 38.4 0 0 1-16.256 42.368l-74.496 48.128 45.632 79.04 79.04-40.512a38.4 38.4 0 0 1 44.8 7.168 308.864 308.864 0 0 0 140.992 81.472 38.4 38.4 0 0 1 28.608 35.2z m253.76-326.208a38.4 38.4 0 1 1-76.8 0 126.912 126.912 0 1 0-79.36 117.76 38.4 38.4 0 0 1 28.8 71.168 203.712 203.712 0 1 1 127.36-188.928z m-45.504 326.272a38.4 38.4 0 0 1 0-76.8h251.84a38.4 38.4 0 0 1 0 76.8H670.72z m0 165.312a38.4 38.4 0 1 1 0-76.8h251.968a38.4 38.4 0 1 1 0 76.8h-251.968z m0-330.624a38.4 38.4 0 1 1 0-76.8h143.36a38.4 38.4 0 1 1 0 76.8h-143.36z" p-id="1199"></path></svg>