<?xml version="1.0" standalone="no"?><!DOCTYPE svg PUBLIC "-//W3C//DTD SVG 1.1//EN" "http://www.w3.org/Graphics/SVG/1.1/DTD/svg11.dtd"><svg t="1516963861424" class="icon" style="" viewBox="0 0 1024 1024" version="1.1" xmlns="http://www.w3.org/2000/svg" p-id="954" xmlns:xlink="http://www.w3.org/1999/xlink" width="200" height="200"><defs><style type="text/css"></style></defs><path d="M240.36056178 468.19282489h131.43608889V1037.74435555h-131.43608889zM494.47276089 643.43608889h131.43608889v394.30098489h-131.43608889zM-13.74435555 687.25054578h131.4288071v350.486528H-13.74435555zM590.86165333 433.13834667c17.52723911 17.51995733 43.81445689 17.51995733 61.33441422 0l297.926656-297.926656v201.53776355c0 26.28721778 17.51995733 43.80717511 43.80717512 43.80717511 26.29449955 0 43.81445689-17.51995733 43.81445688-43.80717511V12.54286222l-26.28721777-26.28721777h-324.21387378c-26.28721778 0-43.80717511 17.51995733-43.80717511 43.81445688 0 26.28721778 17.51995733 43.80717511 43.80717511 43.80717512h201.53776355L590.86165333 371.80393245c-17.52723911 17.52723911-17.52723911 43.80717511 0 61.33441422z m0 0" p-id="955"></path></svg>