<?xml version="1.0" standalone="no"?><!DOCTYPE svg PUBLIC "-//W3C//DTD SVG 1.1//EN" "http://www.w3.org/Graphics/SVG/1.1/DTD/svg11.dtd"><svg t="1566963377418" class="icon" viewBox="0 0 1024 1024" version="1.1" xmlns="http://www.w3.org/2000/svg" p-id="1422" xmlns:xlink="http://www.w3.org/1999/xlink" width="200" height="200"><defs><style type="text/css"></style></defs><path d="M397.86487581 879.95092765H173.06830507c-16.95845149 0-30.8531621-13.89471061-30.8531621-30.8531621V108.31981568c0-16.95845149 13.89471061-30.8531621 30.8531621-30.8531621h586.42583666c16.98002717 0 30.8531621 13.89471061 30.85316209 30.8531621v262.3597568c0 16.95845149 13.89471061 30.8531621 30.8531621 30.8531621 17.00160285 0 30.87473778-13.89471061 30.87473778-30.8531621V108.31981568A92.86154581 92.86154581 0 0 0 759.49414173 15.76032939H173.04672939A92.86154581 92.86154581 0 0 0 80.48724309 108.34139136v740.73479851a92.86154581 92.86154581 0 0 0 92.58106198 92.60263765h224.81814642c16.95845149 0 30.8531621-13.89471061 30.85316209-30.8531621 0-17.00160285-13.89471061-30.87473778-30.85316209-30.87473777z m291.65947221-694.43348026H226.57588679c-16.98002717 0-30.8531621 13.87313493-30.8531621 30.8531621 0 16.98002717 13.87313493 30.8531621 30.8531621 30.85316324h462.94846123c16.98002717 0 30.8531621-13.87313493 30.85316209-30.85316324 0-16.98002717-13.87313493-30.8531621-30.85316209-30.8531621z m0 154.30896299H226.57588679c-16.98002717 0-30.8531621 13.89471061-30.8531621 30.8531621 0 16.98002717 13.87313493 30.87473778 30.8531621 30.87473778h462.94846123c16.98002717 0 30.8531621-13.89471061 30.85316209-30.8531621 0-16.98002717-13.87313493-30.8531621-30.85316209-30.8531621z m-180.02712235 154.33053753H226.55431111c-16.98002717 0-30.8531621 13.87313493-30.8531621 30.8531621 0 16.98002717 13.87313493 30.8531621 30.8531621 30.8531621h282.92133888c16.98002717 0 30.8531621-13.87313493 30.8531621-30.8531621 0-16.98002717-13.87313493-30.8531621-30.8531621-30.8531621z m376.02021718 475.80754148H585.11983616c-15.44815616 0-28.30723641 12.85908025-28.30723641 28.28566072 0 15.44815616 12.85908025 28.30723641 28.30723641 28.30723755h300.39760669c15.42658162 0 27.76784555-12.36284075 28.28566072-28.82505273 0-15.42658162-12.85908025-27.76784555-28.28566072-27.76784554z m-7.72407866-221.71125533h-59.13882282c-7.72407865-17.99408185 2.04968505-51.95413618 26.75379086-92.06324679l0.4962395-1.03563036v-0.51781518c0.51781518-0.51781518 1.03563037-1.53186987 1.03563037-1.53186987 10.78781838-20.5831589 21.59721358-46.30131939 21.59721358-79.74355741 0-74.58698013-58.64258333-133.74737863-133.74737863-134.24361927h-1.01405582c-75.10479531 0.4962395-133.22956345 59.65663915-133.22956345 134.24361927 0 33.44223915 10.78781838 58.64258333 21.59721358 79.22574222 0.51781518 1.53186987 1.03563037 2.56750137 1.55344555 3.08531542l0.4962395 0.51781518c24.70410581 40.13068629 34.47786951 73.55134976 26.75379086 92.06324679h-59.1603985c-33.44223915 0-60.17445433 27.78942123-60.17445434 62.2457162v99.2910848a25.24349667 25.24349667 0 0 0 25.20034532 25.20034531H913.30686407c13.89471061 0 24.70410581-11.32721038 24.70410582-24.70410581v-99.7873243c0-34.45629383-26.75379086-62.24571506-60.19603002-62.2457162z m4.6387621 129.62643285H587.16952235v-67.38071665c0-3.08531655 2.04968505-5.1350016 4.61718642-5.13500274h83.86450432l3.60313173-3.08531541c43.19442717-35.49192419 40.62692579-97.73763925-7.20626347-175.40993593-9.7737637-19.02971221-15.42658162-33.96005433-15.42658048-53.50758173 0-43.71224235 33.93847865-77.15448149 78.16853618-77.67229667 44.76944839 0.51781518 78.19011186 33.96005433 78.19011072 77.67229667 0 20.06534371-5.65281678 34.97410901-15.42658048 53.50758173-47.83318926 77.67229667-49.90444999 139.91801173-7.20626347 175.40993593l3.60313173 3.08531541h83.34668914c2.56750137 0 4.61718642 2.04968505 4.61718642 5.13500274v67.38071665h0.51781518zM425.65429703 648.46590976H226.55431111c-16.98002717 0-30.8531621 13.89471061-30.8531621 30.8531621 0 16.98002717 13.87313493 30.87473778 30.8531621 30.87473777h199.07841024c16.95845149 0 30.8531621-13.89471061 30.8531621-30.85316209 0-16.98002717-13.89471061-30.8531621-30.8531621-30.8531621z" p-id="1423"></path></svg>