<?xml version="1.0" standalone="no"?><!DOCTYPE svg PUBLIC "-//W3C//DTD SVG 1.1//EN" "http://www.w3.org/Graphics/SVG/1.1/DTD/svg11.dtd"><svg t="1566963373130" class="icon" viewBox="0 0 1024 1024" version="1.1" xmlns="http://www.w3.org/2000/svg" p-id="1309" xmlns:xlink="http://www.w3.org/1999/xlink" width="200" height="200"><defs><style type="text/css"></style></defs><path d="M931.4304 439.9104h-63.35146667V114.41493333h-611.66933333c-2.18453333 0-115.78026667 15.29173333-93.93493333 235.9296l-63.35146667 6.5536c-10.92266667-107.04213333 6.5536-190.0544 50.24426667-246.85226666 43.69066667-52.4288 96.11946667-58.9824 102.67306666-58.9824h677.20533334v388.84693333z" p-id="1310"></path><path d="M127.52213333 409.32693333c-8.73813333 0-17.47626667-4.36906667-21.84533333-13.1072L24.84906667 271.70133333c-8.73813333-13.1072-4.36906667-28.39893333 8.73813333-37.13706666 13.1072-8.73813333 28.39893333-4.36906667 37.13706667 8.73813333l58.9824 91.7504 58.9824-85.1968c8.73813333-10.92266667 24.02986667-15.29173333 37.13706666-6.5536 10.92266667 8.73813333 15.29173333 24.02986667 6.5536 37.13706667l-83.01226666 117.9648c-4.36906667 6.5536-13.1072 10.92266667-21.84533334 10.92266666zM142.81386667 990.4128H112.2304V601.56586667h63.35146667V927.06133333h611.66933333c2.18453333 0 115.78026667-15.29173333 93.93493333-235.9296l63.35146667-6.5536c10.92266667 109.22666667-6.5536 192.23893333-52.4288 246.85226667-43.69066667 52.4288-96.11946667 58.9824-102.67306667 58.9824H142.81386667z" p-id="1311"></path><path d="M996.9664 817.83466667c-8.73813333 0-17.47626667-4.36906667-21.84533333-13.1072l-58.9824-93.93493334-61.16693334 87.38133334c-8.73813333 13.1072-24.02986667 15.29173333-37.13706666 6.5536-10.92266667-8.73813333-15.29173333-24.02986667-6.5536-37.13706667l83.01226666-120.14933333c4.36906667-6.5536 13.1072-10.92266667 21.84533334-10.92266667s17.47626667 4.36906667 21.84533333 13.1072l80.82773333 126.70293333c8.73813333 13.1072 4.36906667 28.39893333-8.73813333 37.13706667-4.36906667 2.18453333-8.73813333 4.36906667-13.1072 4.36906667zM300.10026667 603.7504h443.46026666v52.4288H300.10026667zM302.2848 702.0544h443.46026667v52.4288H302.2848zM302.2848 798.17386667h443.46026667v52.4288H302.2848zM688.9472 203.9808c-21.84533333 0-43.69066667 13.1072-50.24426667 34.95253333-8.73813333 21.84533333-2.18453333 45.8752 15.29173334 61.16693334l-50.24426667 74.27413333c-19.6608-8.73813333-43.69066667-4.36906667-58.9824 8.73813333l-58.9824-52.4288c8.73813333-26.2144-4.36906667-54.61333333-30.58346667-67.72053333-26.2144-10.92266667-56.79786667-2.18453333-69.90506666 21.84533333-13.1072 24.02986667-8.73813333 54.61333333 15.29173333 72.0896l-34.95253333 58.9824c-26.2144-8.73813333-54.61333333 6.5536-65.536 30.58346667-10.92266667 26.2144 0 56.79786667 24.02986666 69.90506667 24.02986667 13.1072 54.61333333 6.5536 72.0896-17.47626667 15.29173333-24.02986667 13.1072-54.61333333-8.73813333-72.0896l34.95253333-61.16693333c19.6608 4.36906667 39.3216-2.18453333 52.4288-17.47626667l58.9824 50.24426667c-10.92266667 24.02986667-2.18453333 54.61333333 21.84533334 67.72053333 24.02986667 15.29173333 52.4288 8.73813333 69.90506666-10.92266667 17.47626667-21.84533333 17.47626667-50.24426667 0-72.0896l52.4288-76.45866666c19.6608 6.5536 43.69066667 0 56.79786667-15.29173334 15.29173333-15.29173333 17.47626667-39.3216 8.73813333-58.9824-13.1072-15.29173333-32.768-28.39893333-54.61333333-28.39893333z m0 0" p-id="1312"></path></svg>