<?xml version="1.0" standalone="no"?><!DOCTYPE svg PUBLIC "-//W3C//DTD SVG 1.1//EN" "http://www.w3.org/Graphics/SVG/1.1/DTD/svg11.dtd"><svg t="1566963390856" class="icon" viewBox="0 0 1024 1024" version="1.1" xmlns="http://www.w3.org/2000/svg" p-id="1533" xmlns:xlink="http://www.w3.org/1999/xlink" width="200" height="200"><defs><style type="text/css"></style></defs><path d="M853.5 0c-92.2 0-167.3 75-167.3 167.3 0 79.6 55.9 146.4 130.5 163.2v133.2H668.4c-16.8-74.6-83.6-130.5-163.2-130.5-80.1 0-147.2 56.5-163.5 131.8h-208v227.4C59.1 709.2 3.2 775.9 3.2 855.5c0 92.2 75 167.3 167.3 167.3s167.3-75 167.3-167.3c0-79.6-55.9-146.4-130.5-163.2V538.6h135.1c17.3 73.9 83.8 129.1 162.9 129.1 79.6 0 146.4-55.9 163.2-130.5h221.9V330.4c74.6-16.8 130.5-83.6 130.5-163.2C1020.8 75 945.8 0 853.5 0zM264.1 855.5c0 51.6-42 93.7-93.7 93.7s-93.7-42-93.7-93.7 42-93.7 93.7-93.7 93.7 42.1 93.7 93.7z m241.2-261.4c-51.6 0-93.7-42-93.7-93.7s42-93.7 93.7-93.7 93.7 42 93.7 93.7-42.1 93.7-93.7 93.7z m348.2-333.2c-51.6 0-93.7-42-93.7-93.7s42-93.7 93.7-93.7c51.6 0 93.7 42 93.7 93.7s-42 93.7-93.7 93.7z" p-id="1534"></path></svg>