<?xml version="1.0" standalone="no"?><!DOCTYPE svg PUBLIC "-//W3C//DTD SVG 1.1//EN" "http://www.w3.org/Graphics/SVG/1.1/DTD/svg11.dtd"><svg t="1577184699811" class="icon" viewBox="0 0 1024 1024" version="1.1" xmlns="http://www.w3.org/2000/svg" p-id="1566" xmlns:xlink="http://www.w3.org/1999/xlink" width="200" height="200"><defs><style type="text/css"></style></defs><path d="M989.86666667 512c0 15.01866667-12.288 27.30666667-27.30666667 27.30666667L539.30666667 539.30666667l0 423.25333333c0 15.01866667-12.288 27.30666667-27.30666667 27.30666667s-27.30666667-12.288-27.30666667-27.30666667L484.69333333 539.30666667 61.44 539.30666667c-15.01866667 0-27.30666667-12.288-27.30666667-27.30666667 0-15.01866667 12.288-27.30666667 27.30666667-27.30666667l423.25333333 0L484.69333333 61.44c0-15.01866667 12.288-27.30666667 27.30666667-27.30666667s27.30666667 12.288 27.30666667 27.30666667l0 423.25333333 423.25333333 0C977.57866667 484.69333333 989.86666667 496.98133333 989.86666667 512z" p-id="1567"></path></svg>