<?xml version="1.0" standalone="no"?><!DOCTYPE svg PUBLIC "-//W3C//DTD SVG 1.1//EN" "http://www.w3.org/Graphics/SVG/1.1/DTD/svg11.dtd"><svg t="1577415417597" class="icon" viewBox="0 0 1024 1024" version="1.1" xmlns="http://www.w3.org/2000/svg" p-id="1366" xmlns:xlink="http://www.w3.org/1999/xlink" width="200" height="200"><defs><style type="text/css"></style></defs><path d="M303.37706667 45.23804445c63.95828148-12.37902222 133.49925925-18.6898963 208.62293333-18.6898963 75.12367408 0 144.66465185 6.31087408 208.62293333 18.6898963s114.56663703 29.36983703 151.7037037 50.72971852c37.13706667 21.35988148 55.82696297 44.41884445 55.82696297 69.41961481v69.41961481c0 25.00077037-18.56853333 48.05973333-55.82696297 69.41961482s-87.74542222 38.22933333-151.7037037 50.72971851c-63.95828148 12.25765925-133.49925925 18.44717037-208.62293333 18.44717038-75.12367408 0-144.66465185-6.31087408-208.62293333-18.6898963s-114.56663703-29.36983703-151.7037037-50.72971852c-37.25842963-21.35988148-55.82696297-44.41884445-55.82696297-69.41961481v-69.41961482c0-25.00077037 18.56853333-48.05973333 55.82696297-69.41961482 37.25842963-21.11715555 87.74542222-37.98660741 151.7037037-50.48699258z m-31.31164445 374.04065185c74.3954963 15.53445925 154.37368889 23.30168889 239.93457778 23.30168888s165.53908148-7.76722963 239.93457778-23.30168888 133.13517037-38.47205925 176.09765925-68.8128v92.11448888c0 25.00077037-18.56853333 48.05973333-55.82696295 69.41961482s-87.74542222 38.22933333-151.70370371 50.72971852C656.66465185 575.10874075 587.12367408 581.29825185 512 581.29825185c-75.12367408 0-144.66465185-6.31087408-208.62293333-18.6898963s-114.56663703-29.36983703-151.7037037-50.72971852c-37.25842963-21.35988148-55.82696297-44.41884445-55.82696297-69.41961481v-92.11448889c43.08385185 30.58346667 101.82352592 53.52106667 176.21902222 68.93416297z m0 208.13748148c74.3954963 15.53445925 154.37368889 23.30168889 239.93457778 23.30168889s165.53908148-7.76722963 239.93457778-23.30168889c74.3954963-15.53445925 133.13517037-38.47205925 176.09765925-68.8128v92.11448889c0 25.00077037-18.56853333 48.05973333-55.82696295 69.41961481s-87.74542222 38.22933333-151.70370371 50.72971852c-63.95828148 12.50038518-133.3778963 18.6898963-208.50157037 18.6898963-75.12367408 0-144.66465185-6.31087408-208.62293333-18.6898963s-114.44527408-29.36983703-151.7037037-50.72971852c-37.25842963-21.35988148-55.82696297-44.41884445-55.82696297-69.41961481v-92.11448889c43.08385185 30.34074075 101.82352592 53.27834075 176.21902222 68.8128z m0 208.01611852c74.3954963 15.53445925 154.37368889 23.30168889 239.93457778 23.30168888s165.53908148-7.76722963 239.93457778-23.30168888c74.3954963-15.53445925 133.13517037-38.47205925 176.09765925-68.8128v92.11448888c0 25.00077037-18.56853333 48.05973333-55.82696295 69.41961482s-87.74542222 38.22933333-151.70370371 50.72971852S587.12367408 997.45185185 512 997.45185185c-75.12367408 0-144.66465185-6.31087408-208.62293333-18.6898963s-114.56663703-29.36983703-151.7037037-50.72971852c-37.25842963-21.35988148-55.82696297-44.41884445-55.82696297-69.41961481v-92.11448889c43.08385185 30.4621037 101.82352592 53.3997037 176.21902222 68.93416297z" fill="#6F6F6F" p-id="1367"></path></svg>