<?xml version="1.0" standalone="no"?><!DOCTYPE svg PUBLIC "-//W3C//DTD SVG 1.1//EN" "http://www.w3.org/Graphics/SVG/1.1/DTD/svg11.dtd"><svg t="1577761470997" class="icon" viewBox="0 0 1024 1024" version="1.1" xmlns="http://www.w3.org/2000/svg" p-id="1161" xmlns:xlink="http://www.w3.org/1999/xlink" width="200" height="200"><defs><style type="text/css"></style></defs><path d="M1000.91904 730.45333333H930.70222222V548.40888889H556.21063111V428.77952h309.47555556c11.44263111 0 20.80540445-9.36163555 20.80540444-20.80540445V64.69063111c0-11.44263111-9.36277333-20.80540445-20.80540444-20.80540444H158.31381333c-11.44263111 0-20.80540445 9.36277333-20.80540444 20.80540444v343.28348444c0 11.44376889 9.36277333 20.80540445 20.80540444 20.80540445h309.47555556V548.40888889H93.29777778v182.04444444H23.08096c-5.72188445 0-10.40270222 4.68081778-10.40270222 10.40270222v228.85603556c0 5.72074667 4.68081778 10.40270222 10.40270222 10.40270222h228.85603555c5.72074667 0 10.40156445-4.68195555 10.40156445-10.40270222V740.85603555c0-5.72188445-4.68081778-10.40270222-10.40156445-10.40270222h-70.21795555v-93.62318222h286.07032889V730.45333333h-70.21681778c-5.72188445 0-10.40270222 4.68081778-10.40270222 10.40270222v228.85603556c0 5.72074667 4.68081778 10.40270222 10.40270222 10.40270222H626.42631111c5.72188445 0 10.40270222-4.68195555 10.40270222-10.40270222V740.85603555c0-5.72188445-4.68081778-10.40270222-10.40270222-10.40270222h-70.21681778v-93.62318222h286.07032889V730.45333333H772.06186667c-5.72074667 0-10.40156445 4.68081778-10.40156445 10.40270222v228.85603556c0 5.72074667 4.68081778 10.40270222 10.40156445 10.40270222h228.85603555c5.72188445 0 10.40270222-4.68195555 10.40270223-10.40270222V740.85603555c0-5.72188445-4.68081778-10.40270222-10.40270223-10.40270222zM179.12035555 893.38311111a3.49639111 3.49639111 0 0 1-3.51118222 3.51118222h-76.32896a3.49639111 3.49639111 0 0 1-3.51118222-3.51118222v-76.32896a3.49639111 3.49639111 0 0 1 3.51118222-3.51004444h76.32896a3.49639111 3.49639111 0 0 1 3.51118222 3.51004444V893.38311111z m374.49045334 0a3.49639111 3.49639111 0 0 1-3.51004444 3.51118222H473.77066667a3.49639111 3.49639111 0 0 1-3.51118222-3.51118222v-76.32896a3.49639111 3.49639111 0 0 1 3.51118222-3.51004444h76.32896a3.49639111 3.49639111 0 0 1 3.51004444 3.51004444V893.38311111zM220.72888889 345.55904v-218.45333333h582.54222222v218.45333333H220.72888889zM928.10126222 893.38311111a3.49639111 3.49639111 0 0 1-3.51004444 3.51118222h-76.32896a3.49639111 3.49639111 0 0 1-3.51118223-3.51118222v-76.32896a3.49639111 3.49639111 0 0 1 3.51118223-3.51004444h76.32896a3.49639111 3.49639111 0 0 1 3.51004444 3.51004444V893.38311111zM314.35207111 236.33237333a52.01237333 52.01237333 0 1 0 104.02474667 0 52.01237333 52.01237333 0 1 0-104.02474667 0z" p-id="1162"></path></svg>