<?xml version="1.0" standalone="no"?><!DOCTYPE svg PUBLIC "-//W3C//DTD SVG 1.1//EN" "http://www.w3.org/Graphics/SVG/1.1/DTD/svg11.dtd"><svg t="1577415406136" class="icon" viewBox="0 0 1024 1024" version="1.1" xmlns="http://www.w3.org/2000/svg" p-id="982" xmlns:xlink="http://www.w3.org/1999/xlink" width="200" height="200"><defs><style type="text/css"></style></defs><path d="M406.65263187 669.1368425L335.15789469 666.35789469 226.77894781 307.36842125l72.50526282-22.7368425 75.78947343 252.63157875 96.75789469-251.36842031 70.7368425 27.28421062zM641.09473719 764.63157875a120.75789469 120.75789469 0 0 1-120.50526375-120.50526281h75.78947437a44.71578937 44.71578937 0 1 0 44.71578938-44.71578938v-75.78947437a120.50526281 120.50526281 0 0 1 0 241.01052656z" fill="#7c7c7c" p-id="983"></path><path d="M641.09473719 600.16842125a120.50526281 120.50526281 0 1 1 120.25263094-120.50526375h-75.78947344a44.71578937 44.71578937 0 1 0-44.4631575 44.71579031z" fill="#7c7c7c" p-id="984"></path><path d="M512 107.78947344A404.21052656 404.21052656 0 1 1 107.78947344 512 404.21052656 404.21052656 0 0 1 512 107.78947344m0-75.78947344a480 480 0 1 0 480 480A480 480 0 0 0 512 32z" fill="#7c7c7c" p-id="985"></path></svg>