<?xml version="1.0" standalone="no"?><!DOCTYPE svg PUBLIC "-//W3C//DTD SVG 1.1//EN" "http://www.w3.org/Graphics/SVG/1.1/DTD/svg11.dtd"><svg t="1577945444503" class="icon" viewBox="0 0 1024 1024" version="1.1" xmlns="http://www.w3.org/2000/svg" p-id="1010" xmlns:xlink="http://www.w3.org/1999/xlink" width="200" height="200"><defs><style type="text/css"></style></defs><path d="M446.33430507 34.46474773c-259.99290667 0-411.87774293 64.6991488-411.87774294 144.489744l0 86.65411414c0 79.7916864 151.88483627 144.52030613 411.87774294 144.52030613 259.99290667 0 441.29765973-64.72971093 441.29765973-144.52030613l0-86.65411414C887.6319648 99.16389653 706.32721173 34.46474773 446.33430507 34.46474773z" p-id="1011"></path><path d="M409.92097707 784.0968448c-187.0003392-6.5993696-296.2425056-47.0447968-353.67645227-101.18233387-14.65920213 13.81108587-21.78796267 28.51940693-21.78796267 43.81278614l0 116.837008c0 80.6234304 159.08127147 145.96985387 431.40187947 145.96985386 27.25105387 0 53.7718752-0.78371627 79.8560864-2.08154133C475.7531296 939.77910293 425.84634987 867.6499328 409.92097707 784.0968448z" p-id="1012"></path><path d="M477.55196587 477.86032213c-5.79928107 0.03492907-11.39444587 0.09932907-17.3258016 0.09932907-218.68080747 0-341.9818368-43.24301013-404.1802976-102.8774752-14.52821973 13.95844267-21.58930453 28.75081067-21.58930454 44.10968213l0 117.60216854c0 74.75974933 134.1278816 136.4604736 366.3021408 145.63912106C401.09270933 604.72300267 429.81186667 533.49761707 477.55196587 477.86032213z" p-id="1013"></path><path d="M716.78840213 444.1135936c-150.6186656 0-272.71901547 122.06760427-272.71901546 272.71901547 0 150.6186656 122.09925867 272.70264213 272.71901546 272.70264213s272.75394453-122.08397653 272.75394454-272.70264213C989.54234667 566.18119787 867.40706773 444.1135936 716.78840213 444.1135936zM887.26521173 784.9285888L716.68798187 784.9285888l0 102.3448096L546.11511893 716.69616853 716.68798187 546.12330453l0 102.3459008 170.57613866 0L887.26412053 784.9285888z" p-id="1014"></path></svg>