<?xml version="1.0" standalone="no"?><!DOCTYPE svg PUBLIC "-//W3C//DTD SVG 1.1//EN" "http://www.w3.org/Graphics/SVG/1.1/DTD/svg11.dtd"><svg t="1577761546772" class="icon" viewBox="0 0 2982 1024" version="1.1" xmlns="http://www.w3.org/2000/svg" p-id="1170" xmlns:xlink="http://www.w3.org/1999/xlink" width="582.421875" height="200"><defs><style type="text/css"></style></defs><path d="M1416.30434197 684.89775125l19.14297844-2.03648719 1.2218925 39.10055157c-50.50487906 6.92405625-93.678405 10.58973281-129.52057687 10.58973281-47.65379719 0-81.45948281-13.84811156-101.41705594-41.54433563-19.95757312-27.69622406-29.73271125-70.86975-29.73271125-129.11328 0-116.48706 46.43190469-174.73059 138.88841719-174.73059 44.80271531 0 78.20110313 12.62622 100.19516343 37.47136219 21.99406031 24.84514219 32.99109 64.35299063 32.99109 117.7089525l-2.85108187 37.87865906-219.1260075 0c0 36.6567675 6.51675844 63.94569375 19.95757312 81.45948282 13.44081469 17.51378906 36.24946969 26.47433156 69.24055969 26.47433156C1348.69297166 688.56342781 1382.49865635 687.34153625 1416.30434197 684.89775125zM1398.3832551 540.71446719c0-40.72974094-6.51675844-69.6478575-19.55027531-86.34705094-13.03351688-16.69919344-34.2129825-25.25244-63.53839594-25.25244-29.32541344 0-51.72677156 8.96054344-66.38947781 26.47433156-14.66270719 17.51378906-22.40135812 46.02460781-22.808655 85.12515938L1398.3832551 540.71446719z" p-id="1171"></path><path d="M1517.72139697 726.03479l0-476.53797187 49.69028438-1e-8 0 476.53797188L1517.72139697 726.03479z" p-id="1172"></path><path d="M1881.03068853 494.2825625l0 163.3262625c0 16.69919344 41.13703875 19.95757312 41.13703875 19.95757312l-2.44378406 43.98812063c-35.02757719 0-63.94569375 2.85108188-81.45948281-13.84811156-39.91514625 17.51378906-79.42299562 24.84514219-119.33814188 24.84514218-30.54730594 0-53.76325875-8.55324563-69.6478575-26.06703468-15.88459875-17.10649125-24.0305475-41.95163344-24.0305475-74.53542657 0-32.17649531 8.14594781-56.20704281 24.43784438-71.27704687 16.29189656-15.07000406 41.95163344-24.84514219 76.97921062-28.10352188l104.26813782-9.77513812 0-28.51081875c0-22.40135812-4.88756906-38.69325375-14.66270719-48.46839188-9.77513812-9.77513812-23.21595281-14.66270719-39.91514625-14.66270718l-130.74246938 0L1645.61278447 387.16334281l127.48408969 0c37.47136219 0 64.76028844 8.55324563 81.86677969 26.06703469C1872.47744291 430.33686875 1881.03068853 457.62579594 1881.03068853 494.2825625zM1676.56738822 629.50530312c0 40.72974094 16.69919344 61.09461187 50.50487906 61.09461188 30.14000812 0 59.87271938-4.88756906 88.79083594-15.07000406l15.07000406-5.29486594 0-109.56300375-98.15867625 9.36784031c-19.95757312 1.62918938-34.2129825 7.33135312-43.17352593 17.10649125C1681.04765947 596.92151 1676.56738822 611.17691937 1676.56738822 629.50530312z" p-id="1173"></path><path d="M2075.31155385 431.96605812c-48.061095 0-72.49893937 16.69919344-72.49893938 50.50487907 0 15.47730188 5.70216375 26.47433156 16.69919344 32.99109 10.99702969 6.51675844 36.24946969 13.03351688 75.75731906 19.95757312 39.50784937 6.92405625 67.20407344 16.29189656 83.49596907 28.91811656 16.29189656 12.21892219 24.43784438 35.434875 24.43784437 69.6478575 0 34.2129825-10.99702969 59.05812469-32.99109 74.94272344-21.99406031 15.88459875-53.76325875 24.0305475-96.12218906 24.0305475-27.28892625 0-118.93084406-10.182435-118.93084406-10.182435l2.85108187-43.17352594c52.54136625 4.88756906 90.82732313 8.96054344 116.48706 8.96054344 25.65973688 0 45.21001312-4.07297438 58.65082688-12.21892219 13.44081469-8.14594781 20.36487094-21.99406031 20.36487093-41.13703875 0-19.14297844-5.70216375-32.17649531-17.10649125-39.10055156-11.4043275-6.92405625-36.6567675-13.44081469-75.75731906-19.55027531-39.10055156-6.10946156-66.79677562-15.07000406-83.08867219-27.28892625-16.29189656-11.81162531-24.43784438-34.2129825-24.43784437-66.38947781 0-32.17649531 11.4043275-56.20704281 34.2129825-71.68434469 22.808655-15.47730188 51.31947375-23.21595281 85.12515937-23.21595281 26.88162937 0 120.56003438 6.92405625 120.56003438 6.92405625l0 43.58082281C2144.14481666 435.22443781 2103.82237353 431.96605812 2075.31155385 431.96605812z" p-id="1174"></path><path d="M2443.91571228 437.260925l-105.49002937 0 0 158.84599031c0 37.87865906 2.85108188 63.13109906 8.14594781 74.94272344 5.70216375 11.81162531 18.73568062 17.92108594 39.50784938 17.92108594l59.05812468-4.07297438 3.25837969 41.13703875c-29.73271125 4.88756906-52.13406844 7.33135312-67.61137031 7.33135313-34.62028031 0-58.24353-8.55324563-71.68434469-25.25244-13.44081469-16.69919344-19.95757312-48.87568969-19.95757312-96.12218906L2289.14269541 437.260925l-47.24649937 0L2241.89619603 394.08739906l47.24649938 0L2289.14269541 292.26304625l49.28298656 0 0 101.41705594 105.49002938 0L2443.91571228 437.260925z" p-id="1175"></path><path d="M2513.15627197 318.73737781L2513.15627197 261.3084425l49.69028438 0 0 57.83623219L2513.15627197 319.14467562zM2513.15627197 726.03479L2513.15627197 394.08739906l49.69028438 0 0 331.94739094L2513.15627197 726.03479z" p-id="1176"></path><path d="M2778.30688728 387.16334281c14.66270719 0 39.50784937 2.85108188 74.53542657 8.14594782l15.88459875 2.03648718-2.03648719 40.32244406c-35.434875-4.07297438-61.50190875-6.10946156-78.20110313-6.10946156-37.47136219 0-63.13109906 8.96054344-76.57191375 26.88162938-13.44081469 17.92108594-20.36487094 51.31947375-20.36487093 99.78786562 0 48.46839188 6.10946156 82.2740775 18.73568062 101.41705594 12.62622 19.14297844 38.69325375 28.51081875 78.60840094 28.51081875l78.20110312-6.10946156 2.03648719 41.13703875c-41.13703875 6.10946156-72.09164156 9.36784031-92.4565125 9.36784031-51.72677156 0-87.56894344-13.44081469-107.11921969-39.91514625-19.55027531-26.47433156-29.73271125-71.27704688-29.73271125-134.40814594 0-63.13109906 10.58973281-107.52651656 31.76919844-132.77895656C2693.58902572 400.19686062 2729.02390072 387.16334281 2778.30688728 387.16334281z" p-id="1177"></path><path d="M1038.33234322 535.01230344c0-80.64488719-50.09758125-151.51463719-125.4476025-178.80356344 3.25837969-17.10649125 4.88756906-34.2129825 4.88756907-51.72677156C917.77230978 154.18922375 795.58308603 32 645.69763822 32 557.72139697 32 476.2619151 73.95163344 424.94244135 144.82138344c-25.25244-19.55027531-56.20704281-30.14000812-88.38353813-30.14000813-79.8302925 0-144.59058094 64.76028844-144.59058093 144.59058094 0 17.51378906 3.25837969 34.62028031 8.96054343 50.50487906C125.98614041 336.65846375 74.66666666 408.75010625 74.66666666 488.98769656c0 81.052185 50.50487906 151.921935 125.85490031 179.21086125-3.25837969 16.69919344-4.88756906 34.2129825-4.88756906 51.72677157 0 149.88544781 121.78192594 271.66737375 271.66737375 271.66737374 87.97624125 0 169.43572313-42.35893125 220.3479-113.22868031 25.25244 19.95757312 56.20704281 30.95460375 88.38353812 30.95460375 79.8302925 0 144.59058094-64.76028844 144.59058094-144.59058094 0-17.51378906-3.25837969-34.62028031-8.96054344-50.50487906C986.60557166 687.34153625 1038.33234322 615.24989375 1038.33234322 535.01230344zM447.75109635 173.73949906c44.3954175-64.76028844 117.7089525-103.45354219 195.91005468-103.45354218 131.14976625 0 237.86168813 106.71192188 237.86168813 237.86168812 0 15.88459875-1.62918938 31.36190063-4.48027125 46.8392025l-212.60924906 186.54221438L453.4532601 445.40687281 412.31622135 357.4306325 447.75109635 173.73949906zM341.03917447 150.11624937c25.25244 0 49.28298656 8.14594781 69.24055969 23.21595282l-31.76919844 164.14085719-144.59058093-34.2129825c-4.48027125-12.62622-6.92405625-25.65973688-6.92405626-39.50784938C226.99589854 201.43572313 277.90807541 150.11624937 341.03917447 150.11624937zM111.73073104 489.39499344c0-68.01866813 44.80271531-129.92787469 109.56300375-151.51463719L380.13972603 375.75901531l37.06406438 79.42299563-202.83411094 183.28383562C152.86776979 614.84259687 111.73073104 555.78447219 111.73073104 489.39499344zM666.06250916 850.26050094c-44.3954175 65.57488312-118.11624938 104.26813781-197.13194719 104.26813781-131.55706406 0-238.67628375-107.11921969-238.67628375-238.26898594 0-16.29189656 1.62918938-32.17649531 4.48027125-47.65379719l207.31438313-187.35680906 211.79465437 96.52948688 46.8392025 89.60543062L666.06250916 850.26050094zM771.95983635 873.47645281c-24.84514219 0-48.87568969-8.14594781-68.83326281-23.62324969l31.36190062-163.73355937 144.18328406 33.80568562c4.48027125 12.62622 6.92405625 25.65973688 6.92405625 39.50784938C886.00311135 822.56427687 834.6836376 873.47645281 771.95983635 873.47645281zM891.29797728 685.71234594l-158.84599031-37.06406438-42.35893125-80.64488719 207.72168-182.06194312c61.50190875 23.21595281 102.6389475 82.2740775 102.6389475 148.66355531C1000.86098104 602.62367375 956.05826572 664.53288031 891.29797728 685.71234594z" p-id="1178"></path></svg>