<?xml version="1.0" standalone="no"?><!DOCTYPE svg PUBLIC "-//W3C//DTD SVG 1.1//EN" "http://www.w3.org/Graphics/SVG/1.1/DTD/svg11.dtd"><svg t="1520582038667" class="icon" style="" viewBox="0 0 1024 1024" version="1.1" xmlns="http://www.w3.org/2000/svg" p-id="1582" xmlns:xlink="http://www.w3.org/1999/xlink" width="200" height="200"><defs><style type="text/css"></style></defs><path d="M178.89976827 436.40724997s-19.14121548-14.03624697-17.86808027-39.55832789c-70.18537735 30.62704945-68.91086128 125.05999167-68.91086127 125.05999166 41.5743555-54.8746143 86.77756069-85.50166377 86.77756069-85.50166377zM593.63530945 608.68647443c-68.90948043 33.17884331-71.46127427 21.69577102-71.46127427 21.69577101l-6.3794846 1.27451607c14.03762781 20.41573157 47.21647109 14.03762781 75.29034588 3.82769078 210.56027458-100.81518848 245.01639564 68.91086128 275.6434451 111.02512553-89.33073537-15.31628641-105.92015701 76.56762365-85.50166377 90.59972808 21.69300933-56.14498787 93.15842613-19.13845381 93.15842614-19.13845381s26.79797785-2.55455553 26.79797785-34.45612105c-10.30935759-48.49374887-29.35115253-90.60525145-63.80589277-142.92669107-74.11386949-82.94710823-174.82963744-65.08178966-243.74187956-31.90156554z m-213.75001688 54.87461431c-23.64966078 36.09932164-72.10060357 31.90156554-72.10060357 31.90156553l-9.56922691 9.56922691c196.96865837 146.4519777 331.79119465-18.50326702 331.79119465-18.50326703s-100.19795265-34.2006655-154.4111442-51.684872c-54.21457239-17.48144482-78.75487551 9.83434834-95.71021997 28.71734659z m634.23399844 202.90075052s0.04694859-0.02347429 0.01657009-0.06075699l-0.01657009 0.06075699z m-64.47974308-141.11364706c-3.01437552-331.42527183-293.2394997-397.13948659-412.06085254-410.15391135l0.54681298-0.65589939s-10.86307476-1.84756502-30.15204021-1.85585007c-12.87634068-0.75117741-20.25279235-0.69732462-20.25279235-0.69732461-33.19541339 1.23309085-35.65883341-181.79874109 0-183.12296743-89.39563488 0-109.66913985 114.60702663-111.43385442 207.3912449-102.3037349 35.26115125-238.3414111 121.09974018-363.2840313 325.38823575-16.98296129 34.69224484-51.17119922 188.94873486 85.50166377 106.5594863 0.51643446-1.20271236 1.02320304-2.38609294 1.51892491-3.55980763 9.42976199-4.33584018 27.17494739-9.71559604 60.37174162-13.67032414 38.74225098-5.62002214 72.71783941-23.04899502 103.40978839-53.01876426 0.82574282 14.87165566 7.19003817 39.29872981 37.60305729 53.65947439-37.00653407 16.59080249-104.64287925 16.59080249-104.64287924 16.59080249-12.76035005 0-57.42502731-2.55593637-90.60387061 16.58527912-33.18022414 21.69577102-71.46403596 34.45612106-88.05345761 29.34977169 0 0 25.52346178 14.04038949 95.70883913-10.2085562 19.14259632-6.37948461 42.11288342-11.48307229 82.94848909-12.76035005 40.83698651-1.27451609 123.78547558-21.69300933 139.09761946-43.3873995 0 0-47.39459957-19.61622474-53.24798383-45.11206968l2.20244112 2.3612378s-4.22951543-26.40581906 16.59080249-26.16141023c20.81893708 0.24302799 52.91105866-4.42145232 70.82470667-33.17884329 10.67113789-15.59521625 36.45419773-36.56604583 70.73219031-31.92227816 34.62182195 16.44029084 87.35475215 19.23511267 151.95186669-47.83646862 70.73771369-57.09776803 203.13135094-84.7352971 273.73098056 64.4438412 11.28699289 37.25508541 26.79659701 95.70883913 26.79659701 95.70883913s82.29811305 10.50543698 96.32745582 104.94804508c-11.85175678-8.8553322-25.87695701-16.80483281-39.53761529-18.17186523-20.41849325-2.55317468-25.52346178-42.11150258-25.52346178-54.87185262-1.27451609-5.10496853-15.31214389-17.86808026-26.796597-20.4198741l11.58387366 58.70230507s-5.2057699 28.07525562 36.90711351 43.38878034c21.69439017 6.37948461 48.49098718 25.5207001 49.76688411 47.21509027 5.62278383 8.43417575 11.93046471-6.51756868 15.39637518-20.62147686 0.40044384 0.05109111 0.53990876 0.10632475 0.57304894 0.14360744 0.60756995-2.37228453 21.44031545-85.98495805-64.50183653-141.04874755z m-757.34424285-20.31493017s-2.40680556 19.55270605-28.07525562 12.12378241c-4.89646156 2.50208357-9.34829237 4.32203179-13.35963496 5.62002215l13.35963496-6.25935144s8.26709401-24.20199711 28.72286997-11.73714701l-0.64761435 0.25269389z m66.57171691-25.8590061c0.35073356-0.34521021 0.65175686-0.67108864 0.90721243-0.97211195l0.42391813 0.4529158-1.33113056 0.51919615z m33.60552312-31.56602123c-2.54212796 3.45072123-19.01693981 23.14289219-31.2373811 27.82118092 0.01933178-0.25821725-0.02899765-0.38387374-0.02899765-0.38387375s-112.42115562 44.36641565-66.35768659-29.35115255c15.07463926-16.17378855 26.89049419-24.65353205 39.99191191-30.52486722l0.20712613 0.53576624s72.33258483-29.28349133 75.92967517 8.93265928c-15.53722094 3.77659965-15.73468118 19.20473417-18.50464787 22.97028708z" p-id="1583"></path></svg>