<?xml version="1.0" standalone="no"?><!DOCTYPE svg PUBLIC "-//W3C//DTD SVG 1.1//EN" "http://www.w3.org/Graphics/SVG/1.1/DTD/svg11.dtd"><svg t="1520582031276" class="icon" style="" viewBox="0 0 1025 1024" version="1.1" xmlns="http://www.w3.org/2000/svg" p-id="1333" xmlns:xlink="http://www.w3.org/1999/xlink" width="200.1953125" height="200"><defs><style type="text/css"></style></defs><path d="M557 962c-23.4 0-46 1.4-68.2-0.4-22.6-1.8-44.8-7-72.4-11.4-3.6 9.4-15.2 24.6-11.6 34.8 6.2 17.8 27 14.4 42.6 12 25.8-3.8 51.2-10.2 76.8-15.6-51 23.4-102 31.4-156.6 9.8-39-15.6-79.8-25.8-120-38.4l0.6 0.4c6-2.4 12-6.8 18.2-7 38.2-1.8 76.2-2 114.4-4 8-0.4 15.8-6 23.8-9.2-0.6-1.6-1-3.2-1.6-4.8-7-2.6-14-5-24.4-8.8 34-5.6 42-14.2 46.6-45.6-16.6-1.6-33.4-3.2-50-5 0.2-1.8 0.4-3.4 0.6-5.2 65-5.4 91.4-28.6 79.4-69.8-32.8 28.8-60.8 39.2-86.4 32 37-8.2 57.6-34.2 74.6-64.4-22.8-19-52.4-15-62.6 10.2-16.2 39.8-74.6 45.2-102.2 17.6-5.6-5.6-10.2-12-15.4-18-10.8 5.8-18.6 11.2-27.2 14.8-48.6 20.4-96.6 29.6-142.6-6.8-29.6-23.6-53-52-63.2-88.8-9.6-34.8-17-70.4-25.8-105.4-4.6-18.4 0.8-33.2 15.4-44.6 14.4-11.2 27.6-3 40.8 4 11.4 6 23.2 10.8 38 17.8 0-15.6-3.2-26.8 0.6-35 19.6-42.4 39.4-84.8 62.6-125.4 6.4-11.4 12.2-20.6 8.8-32.6-9.6-34.2-20.4-68-29.8-102-2.2-8.2-3.8-19.4-0.2-26.2 19.8-36.4 38.4-74.2 63-107.4 53.2-71.8 139.2-77.8 204.8-17.6 3.4 3.2 7.2 6 10.8 9.2 9.4 8.2 18.4 10.4 30.4 3 26.8-16.6 54.4-32 82-47C599 44.8 668.8 16 745.4 6c20-2.6 36-0.8 50.4 15.8 23 26.2 48.8 50 72.4 75.8 20 22 46 26 72 21.8 22.6-3.8 37.6 3.6 47.6 21 11.6 20.2 21 42 30 63.6 13.6 32.8 9.8 65.4-9.4 94.4-15.4 23.4-31.6 47.4-52.2 66.2-38.6 35.4-61.4 79-79 127-2.4 6.8-12 14.2-19.2 15.4-50.4 8-100.4 5.8-149.4-10.4-6.4-2.2-13-3.8-25-7.4 31.6 33.6 48 68.4 55.6 107.4 15.8 80.2-0.6 156-31 230-2.8 6.8-10 11.8-15.2 17.8 6-13.8 12.2-27.4 18.4-41.6-38.8 16.8-74.4 35.8-112.2 47.4-38 11.6-78.6 15.6-117.8 23.8-6.8 1.4-14.2 5.8-19 11-7.4 8.2-12.6 18.4-19.8 29.6 66.6 8.4 129 3.8 188.4-23.8 17.4-8 33.8-18.4 50.8-27.6-1 3.2-1 7-2.8 9.2-42.4 49.8-92.8 88.4-155.6 109.4 11-6.4 22.2-13 33.6-19.8zM44.2 558.2c-5-1.2-11.2 2.6-17 4.2 0.4 20.2-2.4 41 2 60.4 10.2 46.4 31.2 87.6 63.4 123.6 38.4 42.8 89.6 43.8 133.8 20 33-17.8 61.8-43.6 93-66.2 8.6 13.6 21.4 31.2 31.4 50.2 9.4 18-4.4 26.6-23.2 35.8 22.2-0.6 31.6-11.6 36.6-25 10.2-26.8 24.6-49.8 44.8-70.6 28.6-29.6 17-61.8-1.2-93.4 16-6.8 31.4-12.8 46.2-19.8 20.8-9.8 34.4-24.6 33.8-49.8-0.8-36-0.2-72-0.2-111.2 24.4 5.6 51.8 10.4 78.2 18.6 45.6 13.8 91.6 27.2 135.4 45.4 50.4 21 101.6 14.4 153 11.8 4.2-0.2 10.6-6.2 11.4-10.6 12-52.8 42.4-93.2 81.8-128.8 25.8-23.4 44-51.6 52.4-86.6 10.8-45.2-2.4-82.2-33.8-114-5.4-5.4-15-8.8-22.8-9-56.2-1.4-108.8 13.6-158.8 38.8-11.8 6-24.2 10.8-36.2 16.2-1-2-1.8-3.8-2.8-5.8 41.2-20.6 82.4-41.2 121-60.6-21.6-26.6-44.2-55.2-67.8-83-26.2-30.6-60-25-93.4-16.6-71.6 17.4-137.2 49.4-201.2 85C463 140 422.6 164 382.8 189c-26.4 16.6-43 42-52.6 71.8-12 37.6-24.2 75-38 117.6v-26c-9 2.2-17 4.2-28 6.8 2.8-4.4 3.6-7.8 5.8-9 26.2-13.4 34.4-37 38.4-64 3-19.8 7-39.8 13.2-58.8 3.6-11.4 10-24 19-31.6 22.8-19.4 47.8-36.4 72.2-54.6-19.6-35-75-63.6-115-44.6-6 2.8-15.2-1.8-22.8-0.8-7.6 1-16.4 3.2-21.6 8-35.2 34.4-70.2 69.4-88.8 115.8-6.4 16.2-7.2 37.2-3.8 54.6 5.2 26 15.4 51.4 25.2 76.2 9.6 23.8-2 44.8-6.8 66.6-0.2 1.4-6.8 1.4-10.6 2-5.4 16.4-10.8 33.2-17.4 53.2-21 14-27.6 39.8-33 67.4 14.6-1 27-1.6 40.2-2.6 0.6 6.2 1.2 11.6 1.2 12-7.2 5-12.4 8.6-17.6 12.2 6.8 1.2 13.6 2.6 22 4.2-10.4 6.2-21 12.4-31.8 18.8 41.8-13.8 56.6-10.2 70.2 18-10.2-4.6-21-9.6-32-14.6-1 1.4-2 2.8-3 4 8.2 13 16.4 26 26.4 42-21.8-7.6-26.2-38.4-57.2-28.6 11 20.6 21.2 39.4 32.6 60.8-27.4-19-41.8-43.2-50.8-71.8-2.4-7.6-10-13.4-15.2-20-19-5.2-38.8-11.2-59-15.8z m432.6 190.2C533 713.2 593 683.2 635.8 630c26.8-33.4 39.8-72.6 46.2-114.4 2-13-2.4-21-13.2-26-17-7.8-34.2-14.8-53-22.8-10.8 28.2-19.4 54.8-31.4 80-21.8 46-44.2 92-69.6 136.2-12.6 22-32.4 40-51.2 62.8 3 0.6 10 4.6 13.2 2.6z m0.2 31.6c2.8 14.4 5.4 28 8.2 42 1.8 0.6 3.8 2.2 5.4 1.8 91.8-17 173.4-54 240.2-120.8 3-3 6-8 6-12.2 0.6-29.2 0.2-58.4 0.2-87.8-2.2-0.4-4.6-1-6.8-1.4C679 708.2 584.8 753.2 477 780z m-201.6-23.2c12 19.6 24.6 30.6 47.6 30.6-16.4-10.6-30.2-19.6-47.6-30.6z" p-id="1334"></path><path d="M445.2 264.8c37.8-6.4 75.4-12.8 113.2-19.4 0-0.8 0-1.4-0.2-2.2-35.4 0-70.8-2-105.8 0.8-20.8 1.6-38.8 13.4-47.4 35.6-11 28.4-23.6 56.2-33.2 86 27.4-44 55.4-85.6 118.4-71.6-0.2-2-0.2-4.2-0.4-6.2-14.6-6.2-29.2-12.4-43.8-18.8-0.2-1.2-0.4-2.8-0.8-4.2z m-143.8 302c-6.4-20.2-3.4-29.4 13.2-34.8-22.6-17.6-47.4-23.8-71-16.4-4.8 15-9 27.8-13 40.4 19.6 2.8 45 6.8 70.8 10.8zM213.8 269c20.2-42.4 41.4-87 62.4-131.6-44.8 33.8-56.4 82.8-62.4 131.6zM104.4 573.8C87 585 70 581.2 52.8 573.2c-8.4-4-17.2-7.6-25.6-11.6 10.2 23.4 30.6 30.2 53.6 30.6 11.2 0.4 22.8-3 23.6-18.4z m166.8-122.2c16 9.4 31 18.2 45.4 26.8 1.6-23.8-12.2-32.4-45.4-26.8z" p-id="1335"></path></svg>