<?xml version="1.0" standalone="no"?><!DOCTYPE svg PUBLIC "-//W3C//DTD SVG 1.1//EN" "http://www.w3.org/Graphics/SVG/1.1/DTD/svg11.dtd"><svg t="1577761456742" class="icon" viewBox="0 0 1024 1024" version="1.1" xmlns="http://www.w3.org/2000/svg" p-id="1161" xmlns:xlink="http://www.w3.org/1999/xlink" width="200" height="200"><defs><style type="text/css"></style></defs><path d="M494.93333333 768h34.13333334v34.13333333h-34.13333334z m0-68.26666667h34.13333334v34.13333334h-34.13333334z m228.8128-312.71253333l29.1328-14.55786667 15.27466667 30.5152-29.14986667 14.57493334z m131.92533334-27.76746667l14.91626666-7.45813333C883.72906667 366.848 902.31466667 375.46666667 921.66826667 375.46666667A68.26666667 68.26666667 0 1 0 887.46666667 248.09813333c-26.28266667 15.1552-38.33173333 45.1072-32.34133334 73.25013334l-14.7456 7.3728 15.27466667 30.53226666zM904.53333333 277.6576c5.2736-3.05493333 10.99093333-4.59093333 17.01546667-4.59093333 12.1856 0 23.51786667 6.53653333 29.61066667 17.06666666a34.16746667 34.16746667 0 0 1-29.4912 51.2 34.26986667 34.26986667 0 0 1-29.61066667-17.06666666A34.16746667 34.16746667 0 0 1 904.53333333 277.6576zM782.04586667 357.888l29.184-14.592 15.2576 30.53226667-29.184 14.57493333zM665.42933333 416.2048l29.14986667-14.592 15.27466667 30.53226667-29.184 14.57493333z m-409.6-13.2096l15.2576-30.53226667 29.1328 14.57493334-15.2576 30.53226666z m-58.33386666-29.16693333l15.2576-30.5152 29.184 14.57493333-15.27466667 30.53226667z m116.6336 58.33386666l15.2576-30.54933333 29.184 14.592-15.27466667 30.54933333zM68.26666667 366.30186667c10.752 6.21226667 22.49386667 9.1648 34.06506666 9.1648 19.3536 0 37.9392-8.61866667 51.0976-23.67146667l14.8992 7.45813333 15.27466667-30.54933333-14.7456-7.35573333c5.97333333-28.16-6.05866667-58.09493333-32.32426667-73.2672A68.23253333 68.23253333 0 0 0 43.29813333 273.06666667 68.26666667 68.26666667 0 0 0 68.26666667 366.30186667zM72.84053333 290.13333333a34.304 34.304 0 0 1 29.62773334-17.06666666 34.16746667 34.16746667 0 0 1 29.4912 51.2c-6.0928 10.53013333-17.42506667 17.06666667-29.62773334 17.06666666a34.16746667 34.16746667 0 0 1-29.4912-51.2zM546.13333333 862.48106667a68.18133333 68.18133333 0 0 0-17.06666666-6.94613334V836.26666667h-34.13333334v19.28533333a68.26666667 68.26666667 0 1 0 51.2 6.94613333zM541.55946667 938.66666667c-6.0928 10.53013333-17.42506667 17.06666667-29.62773334 17.06666666a34.16746667 34.16746667 0 0 1-29.4912-51.2 34.304 34.304 0 0 1 29.62773334-17.06666666 34.16746667 34.16746667 0 0 1 29.4912 51.2z" p-id="1162"></path><path d="M887.46666667 648.53333333c-30.13973333 0-56.96853333 13.2608-75.70773334 33.9968l-176.64-112.41813333A135.2192 135.2192 0 0 0 648.53333333 512c0-15.872-3.24266667-30.89066667-8.22613333-45.07306667l11.22986667-5.61493333-15.27466667-30.53226667-10.76906667 5.39306667c-21.46986667-32.08533333-56.32-53.93066667-96.42666666-58.9824V237.2096c48.384-8.15786667 85.33333333-49.9712 85.33333333-100.69333333a102.4 102.4 0 0 0-204.8 0c0 50.72213333 36.94933333 92.53546667 85.33333333 100.69333333v139.9808c-40.10666667 5.05173333-74.9568 26.91413333-96.42666666 58.9824l-10.76906667-5.39306667-15.27466667 30.54933334 11.22986667 5.59786666C378.70933333 481.09226667 375.46666667 496.11093333 375.46666667 512c0 20.87253333 5.05173333 40.41386667 13.43146666 58.112L212.24106667 682.53013333C193.50186667 661.79413333 166.67306667 648.53333333 136.53333333 648.53333333a102.4 102.4 0 1 0 94.37866667 62.58346667L407.41546667 598.784A135.38986667 135.38986667 0 0 0 494.93333333 646.82666667V665.6h34.13333334v-18.77333333a135.424 135.424 0 0 0 87.51786666-48.04266667l176.52053334 112.3328A102.4 102.4 0 1 0 887.46666667 648.53333333zM136.53333333 819.2c-37.64906667 0-68.26666667-30.6176-68.26666666-68.26666667s30.6176-68.26666667 68.26666666-68.26666666 68.26666667 30.6176 68.26666667 68.26666666-30.6176 68.26666667-68.26666667 68.26666667z m307.2-682.66666667c0-37.64906667 30.6176-68.26666667 68.26666667-68.26666666s68.26666667 30.6176 68.26666667 68.26666666-30.6176 68.26666667-68.26666667 68.26666667-68.26666667-30.6176-68.26666667-68.26666667z m68.26666667 477.86666667c-56.45653333 0-102.4-45.94346667-102.4-102.4s45.94346667-102.4 102.4-102.4 102.4 45.94346667 102.4 102.4-45.94346667 102.4-102.4 102.4z m375.46666667 204.8c-37.64906667 0-68.26666667-30.6176-68.26666667-68.26666667s30.6176-68.26666667 68.26666667-68.26666666 68.26666667 30.6176 68.26666666 68.26666666-30.6176 68.26666667-68.26666666 68.26666667z" p-id="1163"></path></svg>