<?xml version="1.0" standalone="no"?><!DOCTYPE svg PUBLIC "-//W3C//DTD SVG 1.1//EN" "http://www.w3.org/Graphics/SVG/1.1/DTD/svg11.dtd"><svg t="1577761511496" class="icon" viewBox="0 0 1025 1024" version="1.1" xmlns="http://www.w3.org/2000/svg" p-id="1161" xmlns:xlink="http://www.w3.org/1999/xlink" width="200.1953125" height="200"><defs><style type="text/css"></style></defs><path d="M583.3521875 470.36229167c12.009375 102.403125 99.028125 181.8721875 204.6571875 181.8721875s192.6478125-79.4690625 204.658125-181.8721875h-0.3365625a23.878125 23.878125 0 0 0-2.6971875-13.809375l-177.825-333.0234375c-1.5515625-6.4275-5.645625-12.211875-11.938125-15.571875-2.15625-1.1521875-4.411875-1.8234375-6.691875-2.2696875-0.19125-0.0440625-0.388125-0.0721875-0.5803125-0.110625a23.8790625 23.8790625 0 0 0-3.2878125-0.3459375c-0.3365625-0.0140625-0.6478125-0.1059375-0.984375-0.1059375H535.870625V68.90510417c0-16.2478125-10.7475-29.41875-24-29.41875s-24 13.1709375-24 29.41875v36.2203125H235.409375c-0.3309375 0-0.6375 0.0871875-0.9646875 0.10125-0.2925 0.024375-0.5859375 0.0571875-0.8784375 0.0909375-4.785 0.403125-9.1153125 2.31375-12.6234375 5.3184375l-0.110625 0.0965625a22.9546875 22.9546875 0 0 0-2.60625 2.64 24.1246875 24.1246875 0 0 0-1.3153125 1.665c-0.2934375 0.421875-0.58125 0.8446875-0.849375 1.28625a23.9503125 23.9503125 0 0 0-3.0675 7.1953125L35.16875 456.55760417c-2.1028125 3.94125-2.8996875 8.1984375-2.713125 12.36-0.0234375 0.4846875-0.12 0.950625-0.12 1.4446875H32.0046875c12.009375 102.403125 99.028125 181.8721875 204.658125 181.8721875s192.646875-79.4690625 204.6571875-181.8721875h-0.335625a23.878125 23.878125 0 0 0-2.698125-13.809375L276.2628125 153.12541667h211.6078125v741.0534375H235.409375c-12.6665625 0-22.93875 10.7465625-22.93875 24s10.2721875 24 22.93875 24h552.9215625c12.6675 0 22.9396875-10.7475 22.9396875-24 0-13.258125-10.2721875-24-22.944375-24H535.870625V153.12541667h212.67375L586.52 456.55291667c-2.1028125 3.94125-2.904375 8.1984375-2.716875 12.36-0.024375 0.489375-0.12 0.9553125-0.12 1.449375h-0.3309375zM236.6628125 604.23541667c-70.498125 0-130.18125-46.1465625-150.5859375-109.8721875H335.028125c10.8815625 0 19.708125-10.7465625 19.708125-24 0-13.2571875-8.821875-24-19.708125-24h-240l141.695625-265.3678125 155.7890625 291.744375c-12.6628125 74.64375-77.6015625 131.495625-155.8509375 131.495625z m551.3465625 0c-70.4971875 0-130.18125-46.1465625-150.585-109.8721875h251.0634375c10.959375 0 19.843125-10.7465625 19.843125-24 0-13.2571875-8.8846875-24-19.843125-24H646.371875l141.70125-265.3678125 155.784375 291.7490625c-12.658125 74.64-77.596875 131.4909375-155.8471875 131.4909375z" p-id="1162"></path></svg>