<?xml version="1.0" standalone="no"?><!DOCTYPE svg PUBLIC "-//W3C//DTD SVG 1.1//EN" "http://www.w3.org/Graphics/SVG/1.1/DTD/svg11.dtd"><svg t="1547870506402" class="icon" style="" viewBox="0 0 1024 1024" version="1.1" xmlns="http://www.w3.org/2000/svg" p-id="608" xmlns:xlink="http://www.w3.org/1999/xlink" width="200" height="200"><defs><style type="text/css"></style></defs><path d="M512 275.34186667a127.43146667 127.43146667 0 1 1 127.43146667-127.4304A127.43146667 127.43146667 0 0 1 512 275.34186667z m0-182.04373334a54.61333333 54.61333333 0 1 0 54.61333333 54.61333334 54.61333333 54.61333333 0 0 0-54.61333333-54.61333334zM512 1003.52a467.39946667 467.39946667 0 0 1-249.40053333-71.9072 36.40853333 36.40853333 0 1 1 38.68373333-61.44 402.77333333 402.77333333 0 0 0 418.24746667 0 36.40853333 36.40853333 0 0 1 38.22933333 61.8944A467.85386667 467.85386667 0 0 1 512 1003.52z m432.3552-432.3552a36.40853333 36.40853333 0 0 1-36.40853333-36.4096 394.12586667 394.12586667 0 0 0-188.416-337.23733333 36.40853333 36.40853333 0 1 1 38.22933333-61.8944 466.03413333 466.03413333 0 0 1 223.0048 399.13173333 36.40853333 36.40853333 0 0 1-36.4096 36.4096z m-864.7104 0a36.40853333 36.40853333 0 0 1-36.4096-36.4096 467.85386667 467.85386667 0 0 1 212.5376-392.30506667 36.40853333 36.40853333 0 0 1 40.04906667 60.98453334A395.0368 395.0368 0 0 0 116.05333333 534.7552a36.40853333 36.40853333 0 0 1-36.40853333 36.4096z" p-id="609"></path><path d="M512 753.20853333a195.69813333 195.69813333 0 1 1 195.69813333-195.69706666A195.69813333 195.69813333 0 0 1 512 753.20853333z m0-318.57706666a122.88 122.88 0 1 0 122.88 122.88 122.88 122.88 0 0 0-122.88-122.88z m-364.08853333 477.86666666A127.43146667 127.43146667 0 1 1 275.34186667 785.06666667a127.43146667 127.43146667 0 0 1-127.4304 127.43146666z m0-182.0448a54.61333333 54.61333333 0 1 0 54.61333333 54.61333334 54.61333333 54.61333333 0 0 0-54.61333333-54.61333334z m728.17706666 182.0448A127.43146667 127.43146667 0 1 1 1003.52 785.06666667a127.43146667 127.43146667 0 0 1-127.43146667 127.43146666z m0-182.0448a54.61333333 54.61333333 0 1 0 54.61333334 54.61333334 54.61333333 54.61333333 0 0 0-54.61333334-54.61333334z" p-id="610"></path><path d="M475.59146667 238.93333333h72.81706666v159.28853334h-72.81706666z m-280.576 470.90346667L354.304 596.1952l42.32533333 59.25546667-159.28853333 113.68746666z m432.49173333-54.15786667l42.32533333-59.25546666 159.24266667 113.77706666-42.32533333 59.21066667z" p-id="611"></path></svg>