<?xml version="1.0" standalone="no"?><!DOCTYPE svg PUBLIC "-//W3C//DTD SVG 1.1//EN" "http://www.w3.org/Graphics/SVG/1.1/DTD/svg11.dtd"><svg t="1520582022595" class="icon" style="" viewBox="0 0 1024 1024" version="1.1" xmlns="http://www.w3.org/2000/svg" p-id="959" xmlns:xlink="http://www.w3.org/1999/xlink" width="200" height="200"><defs><style type="text/css"></style></defs><path d="M518.252 180.122c-4.27-0.584-15.232-6.288-32.876-41.846l-0.056 0.051-0.502-1.193a241.78 241.78 0 0 1-4.3-9.021l-0.026 0.05-0.666-1.382c-0.343-0.69-0.584-1.274-0.983-2.017l0.107-0.051-5.519-12.447c-16.24-38.845-28.39-80.082-30.756-91.254l-7.531-4.935-0.666 0.107-0.21-0.609-7.854-4.035C332.11 39.296 218.19 83.19 210.494 134.216c-2.76 17.935 6.527 34.124 27.52 48.164 40.437 27.038 70.799 62.172 88.017 102.108l3.293 8.279 0.107 0.107c0.108 0.292 0.108 0.533 0.266 0.768l0.901 2.442-0.266-0.081c7.562 20.966 11.94 42.777 12.631 65.172 3.267 104.786-64.691 215.414-191.37 311.526-81.04 61.538-113.096 119.378-95.396 171.92C97.86 968.622 411.346 1012.46 487.665 1012.46c14.674 0 22.901-1.332 26.987-8.336 145.229-244.495 107.095-436.848 93.404-486.313 37.888-11.837 205.916-62.94 351.089-85.074 7.992-1.218 13.399-7.72 13.399-16.266-0.276-30.459-119.444-189.117-454.292-236.35z m-253.097-45.19a226.32 226.32 0 0 1 13.112-10.72l16.215 18.974c-12.237-3.215-22.267-6-29.327-8.254zM646.6 257.495c19.952 5.837 67.614 19.932 100.147 32.45-31.493 9.498-81.598 25.478-120.259 41.795 6.605-21.57 16.077-53.837 20.112-74.245z m-85.284-15.309a8733.635 8733.635 0 0 0-63.043 35.026 120.07 120.07 0 0 0-6.768-49.597l69.81 14.571z m42.43 25.58c-4.404 16.215-12.95 40.094-29.584 70.21-10.798-6.128-28.053-15.733-43.28-23.086l72.863-47.124z m-113.358 90.516l33.961 18.284-46.776 25.712c4.536-13.962 9.713-30.679 12.815-43.996z m11.305 83.16a9577.84 9577.84 0 0 0-45.588 58.695c-2.76-12.39-5.811-22.42-9.021-29.957 10.905-5.468 29.85-15.258 54.61-28.739zM555.53 604.37c-16.583 9.738-43.248 23.403-67.527 35.24 3.768-23.54 4.567-52.09 4.567-72.678l62.96 37.438z m-30.146-61.404l46.177-15.703c2.038 14.218 2.678 30.433 2.785 42.93-15.815-8.196-35.584-19.455-48.962-27.227zM390.666 368.998c-0.532-21.227-1.433-37.6-2.703-49.515 11.064 3.318 26.614 8.36 39.695 14.249a6475.156 6475.156 0 0 1-36.992 35.266z m45.138 16.774c-5.012 14.433-11.755 30.146-20.27 43.755a931.584 931.584 0 0 0-16.374-13.348c8.628-7.219 36.644-30.407 36.644-30.407z m-25.446 122.25c2.918 4.562 5.601 11.146 6.103 20.244 0 0-35.932 16.482-59.361 27.413 25.128-21.55 42.961-37.468 53.258-47.657z m-55.962-303.488l55.01 7.987-40.679 30.515c-3.743-11.597-9.155-25.79-14.33-38.502z m89.851 365.686c1.034 15.575 0.686 42.455-8.735 72.253-10.562-9.339-26.747-26.296-39.854-52.3l48.589-19.953z m16.502 144.645c17.567 8.888 48.507 24.36 74.214 34.944-39.956 18.841-85.176 38.717-113.357 48.133l39.143-83.077z m-6.288-555.653l5.627 13.48-21.893-3.42 16.266-10.06z m-4.966 71.168c3.267 10.163 7.035 28.072 6.661 56.678-13.583-5.018-34.416-12.447-51.61-17.966l44.949-38.712z m-30.7-177.87c7.245 19.134 13.026 36.537 15.785 47.448-21.519-2.468-62.73-8.254-91.095-13.19 21.392-9.973 50.955-23.321 75.31-34.257z m-90.327 67.35c25.58 5.519 58.112 12.338 83.083 16.66l-36.593 22.686h-8.755a2373.898 2373.898 0 0 1-37.735-39.347z m36.91 502.978c8.464 13.64 21.786 31.416 42.753 52.034-15.575 8.28-45.43 22.636-91.121 38.344 22.497-39.168 38.656-69.52 48.369-90.378z m39.169 102.717c-6.953 23.404-19.293 57.482-37.868 88.233-14.966-7.7-42.48-24.069-66.893-50.79 47.734-16.292 82.867-28.764 104.76-37.443z m-100.409-97.331c-8.944 21.652-23.009 52.91-38.052 74.91-2.867-10.664-6.051-27.222-7.352-51.793a3310.956 3310.956 0 0 1 45.404-23.117z m-97.945 48.215c1.858 14.408 6.236 36.588 16.931 64.533-37.176 11.356-83.19 24.785-109.67 31.022 9.923-23.245 34.468-63.048 92.739-95.555z m-98.258 133.58c26.22-2.656 66.498-12.02 100.94-20.935-15.283 23.189-40.202 57.237-60.661 84.25-30.224-24.336-38.318-49.357-40.28-63.314z m147.323-15.63c12.63 11.007 32.558 27.438 55.142 42.219l-122.91 44.815 67.768-87.035z m28.073 145.28c-15.499-3.103-50.55-11.382-79.447-28.79l119.966-32.4-40.52 61.19z m100.756-66.366c15.314 5.919 49.09 17.807 88.786 24.863-43.889 15.734-103.01 36.034-143.155 45.854 27.78-34.176 45.69-57.395 54.369-70.717z m104.5 107.264c-17.936-1.725-68.01-7.06-107.127-15.846 32.748-7.88 82.315-21.202 130.397-39.22-8.197 21.627-17.332 43.945-23.27 55.066z m38.788-109.174c-39.823-7.536-85.519-18.816-111.523-29.614 47.447-19.42 103.377-43.197 135.674-59.858-6.077 34.176-14.883 71.619-24.15 89.472z m37.55-151.49c-26.639-8.73-53.57-24.679-69.81-35.267 26.055-12.605 63.129-33.833 80.588-44.052 0.686 34.002-6.533 64.568-10.778 79.319z m-48.558-226.53c33.598-38.103 55.967-64.614 66.816-79.047 29.271 16.374 46.49 29.824 56.602 39.695-28.242 8.863-83.087 26.163-123.418 39.352z m115.748-118.748c47.493-17.828 101.468-37.52 134.16-48.532-16.267 25.605-45.348 67.691-83.64 107.545-10.481-15.175-29.482-40.545-50.52-59.013z m113.756 51.349c21.97-27.039 55.7-70.743 72.151-102.108 35.482 24.57 78.649 57.16 100.49 80.138-35.24 3.261-118.804 11.592-172.64 21.97z" p-id="960"></path></svg>