<?xml version="1.0" standalone="no"?><!DOCTYPE svg PUBLIC "-//W3C//DTD SVG 1.1//EN" "http://www.w3.org/Graphics/SVG/1.1/DTD/svg11.dtd"><svg t="1520582028105" class="icon" style="" viewBox="0 0 1024 1024" version="1.1" xmlns="http://www.w3.org/2000/svg" p-id="1208" xmlns:xlink="http://www.w3.org/1999/xlink" width="200" height="200"><defs><style type="text/css"></style></defs><path d="M216.474 521.011l15.36-17.817 8.396 21.913c43.623 113.664 140.493 192.512 141.517 193.331 31.744 25.396 66.355 48.538 101.786 69.428 64.717 6.348 119.398 26.214 156.877 39.936 31.744 11.673 68.608 16.384 105.062 16.793-58.573-45.67-92.365-97.894-94.413-101.171l-7.577-11.674 11.673-7.577c23.143-14.746 73.728-24.167 110.797-29.287-82.125-79.667-182.886-106.29-183.91-106.7l-4.506-1.23-2.867-3.686c-1.229-1.638-29.491-37.888-81.101-164.044-49.357-120.832-155.034-204.186-156.058-205.21l-0.614-0.614c-80.486-69.632-182.682-72.09-183.706-72.09l-5.734 0.41-4.096-4.301c-26.624-28.058-77.62-45.466-108.749-44.237-10.035 0.41-13.926 2.662-14.54 3.482-1.434 2.252-0.615 9.01 5.939 20.275 6.758 11.878 16.998 24.985 26.214 36.25 6.144 7.987 11.674 14.54 15.36 20.275 14.54 22.528 17.818 38.502 18.227 40.14l0.205 0.615c6.554 43.008 51.2 126.771 62.054 135.577 17.408 13.722 15.975 34.407 12.288 44.647-22.118 67.584-25.19 127.795-8.806 178.79 9.011 28.058 21.914 48.128 33.178 61.44 10.65-86.425 29.49-111.001 31.744-113.664z" p-id="1209"></path><path d="M861.594 889.446c-61.645 11.264-152.986 19.047-221.184-6.144-56.935-20.89-153.6-56.115-265.216-36.044-111.616 20.07-212.378 53.862-212.378 53.862s144.794-33.587 200.5-36.045c55.705-2.457 139.468 5.53 203.57 33.178 84.788 36.864 214.836 47.513 308.43 5.325 93.798-42.19 129.228-67.584 129.228-67.584s-81.1 42.188-142.95 53.452z" p-id="1210"></path></svg>