<?xml version="1.0" standalone="no"?><!DOCTYPE svg PUBLIC "-//W3C//DTD SVG 1.1//EN" "http://www.w3.org/Graphics/SVG/1.1/DTD/svg11.dtd"><svg t="1577761556674" class="icon" viewBox="0 0 1024 1024" version="1.1" xmlns="http://www.w3.org/2000/svg" p-id="1452" xmlns:xlink="http://www.w3.org/1999/xlink" width="200" height="200"><defs><style type="text/css"></style></defs><path d="M687.104 378.752m-207.872 0a3.248 3.248 0 1 0 415.744 0 3.248 3.248 0 1 0-415.744 0Z" p-id="1453"></path><path d="M288.704 155.648m-121.6 0a1.9 1.9 0 1 0 243.2 0 1.9 1.9 0 1 0-243.2 0Z" p-id="1454"></path><path d="M400.064 823.808m-166.144 0a2.596 2.596 0 1 0 332.288 0 2.596 2.596 0 1 0-332.288 0Z" p-id="1455"></path><path d="M233.92 337.664m-30.912 0a0.483 0.483 0 1 0 61.824 0 0.483 0.483 0 1 0-61.824 0Z" p-id="1456"></path><path d="M465.344 124.736m-30.912 0a0.483 0.483 0 1 0 61.824 0 0.483 0.483 0 1 0-61.824 0Z" p-id="1457"></path><path d="M548.416 155.648m-30.912 0a0.483 0.483 0 1 0 61.824 0 0.483 0.483 0 1 0-61.824 0Z" p-id="1458"></path><path d="M697.728 663.36m-30.912 0a0.483 0.483 0 1 0 61.824 0 0.483 0.483 0 1 0-61.824 0Z" p-id="1459"></path><path d="M635.84 730.944m-30.912 0a0.483 0.483 0 1 0 61.824 0 0.483 0.483 0 1 0-61.824 0Z" p-id="1460"></path><path d="M233.92 436.16m-30.912 0a0.483 0.483 0 1 0 61.824 0 0.483 0.483 0 1 0-61.824 0Z" p-id="1461"></path><path d="M248.384 537.28m-30.912 0a0.483 0.483 0 1 0 61.824 0 0.483 0.483 0 1 0-61.824 0Z" p-id="1462"></path><path d="M295.808 616.64m-30.912 0a0.483 0.483 0 1 0 61.824 0 0.483 0.483 0 1 0-61.824 0Z" p-id="1463"></path></svg>