<?xml version="1.0" standalone="no"?><!DOCTYPE svg PUBLIC "-//W3C//DTD SVG 1.1//EN" "http://www.w3.org/Graphics/SVG/1.1/DTD/svg11.dtd"><svg t="1577761490533" class="icon" viewBox="0 0 1558 1024" version="1.1" xmlns="http://www.w3.org/2000/svg" p-id="1300" xmlns:xlink="http://www.w3.org/1999/xlink" width="304.296875" height="200"><defs><style type="text/css"></style></defs><path d="M1130.66202927 418.92173938h-30.97043531v196.84173843h147.42260906l19.53391312-31.72173843h-135.98608687V418.92173938z m-410.37913031 10.01739093l-114.86608782 186.8243475h38.31652219l35.06086969-56.76521718h74.04521719l19.53391312-31.72173844h-74.08695656l40.73739094-65.02956563 94.41391312 153.51652125h38.27478281l-116.45217375-187.65913031c-7.26260906-11.68695656-26.88-11.68695656-34.97739093 0.83478281z m206.81739093 22.4556525h131.93739094l19.53391313-31.63826062h-152.2643475c-52.96695656 0-87.9443475 44.24347781-87.9443475 98.37913031 0 54.21913031 34.97739094 98.42086969 87.9443475 98.42086969h128.64l20.36869593-31.72173938h-148.17391312c-35.8956525 0-57.05739094-29.96869594-57.05739188-65.82260906 0-35.8956525 21.20347781-67.5756525 57.0156525-67.57565156v-0.04173938zM277.30550708 584.04173937H141.27768083c-35.8956525 0-56.18086969-30.05217375-56.18086969-65.94782625 0-35.81217375 21.28695656-65.82260906 56.18086969-65.82260906h136.02782625c35.8956525 0 56.97391313 30.01043438 56.97391313 65.86434844 0 35.85391312-21.20347781 65.94782625-56.97391313 65.94782531z m0-165.12H141.27768083C88.39420302 418.92173938 53.33333333 463.16521719 53.33333333 517.30086969c0 54.26086969 35.01913031 98.46260906 87.9443475 98.46260812h136.02782625c52.92521719 0 87.9443475-44.24347781 87.94434844-98.46260812 0-54.1356525-35.01913031-98.37913031-87.94434844-98.37913031z m1085.42608688 32.55652126h131.93739187L1514.20289896 419.75652219h-152.26434844c-52.96695656 0-87.98608687 44.24347781-87.98608688 98.37913031 0 54.21913031 35.06086969 98.42086969 87.98608688 98.42086969h128.68173937l20.32695657-31.72173938h-148.17391313c-30.1356525 0-49.66956563-21.7043475-55.38782625-50.83826062h166.12173938l20.36869593-31.63826157h-185.69739187c4.92521719-30.09391313 24.45913031-50.92173938 54.55304343-50.92173843z m-829.77391313 84.18782625c31.80521719 0 57.05739094-25.87826062 57.05739188-58.35130407a58.76869594 58.76869594 0 0 0-16.61217375-41.40521718 55.93043437 55.93043437 0 0 0-40.40347875-16.98782625H373.34724645v196.84173843h35.01913032v-164.32695562h124.63304343c13.8156525 0 26.04521719 11.68695656 26.04521719 26.71304344a26.54608688 26.54608688 0 0 1-26.04521719 26.62956468h-100.17391312l113.19652219 111.86086969h45.57913031l-80.55652219-79.3043475 21.871305-1.66956562z m-296.34782531-185.11304344c39.02608687-100.09043438 122.12869594-168.45913031 239.37391219-168.45913031h635.93739187c117.28695656 0 200.34782625 68.36869594 239.45739094 168.45913031h153.85043531C1456.39420302 166.23304344 1312.22724645 32 1112.00463739 32H475.9837677C276.47072427 32 131.51072427 165.35652219 82.71768083 350.55304344H236.56811614z m1115.56173844 306.8243475c-39.06782625 100.09043438-122.17043438 168.45913031-239.45739094 168.45913125H475.9837677c-117.24521719 0-200.34782625-68.36869594-239.41565156-168.45913125H82.71768083c48.83478281 184.40347781 192.91826063 318.55304344 393.26608688 318.55304344h635.93739187c199.51304344 0 344.47304344-133.35652219 393.30782625-318.55304344h-153.05739188z" p-id="1301"></path></svg>