<?xml version="1.0" standalone="no"?><!DOCTYPE svg PUBLIC "-//W3C//DTD SVG 1.1//EN" "http://www.w3.org/Graphics/SVG/1.1/DTD/svg11.dtd"><svg t="1520582018635" class="icon" style="" viewBox="0 0 1024 1024" version="1.1" xmlns="http://www.w3.org/2000/svg" p-id="831" xmlns:xlink="http://www.w3.org/1999/xlink" width="200" height="200"><defs><style type="text/css"></style></defs><path d="M494.50172619 689.63136347c4.77296261-6.62803595 3.44735541-15.3700529 2.12174821-19.88410784-2.65121438-9.80224379-9.54463067-18.55850066-16.70342731-21.4686227-8.74848963-3.71791392-13.52145225-5.56651457-23.86092942 6.09727525-6.8934163 7.94846498-12.19455052 14.31759328-16.43675243 19.88410785-19.35334717 24.65707045-28.36851168 33.14017975-86.16446737 45.06546632-11.93046471 2.39230672-18.82388101 5.0435211-22.53532222 6.62803595 4.50628773 3.18068053 12.45993086 6.89988898 21.20971504 9.27925033 42.68351589 10.60485751 101.8063733 11.39970402 142.3694355-45.60140516zM374.40352711 45.91702977c-55.41012163-18.02903451-193.53864976-53.82042864-277.58266343 5.83189491-51.43330007 36.58753517-75.29422949 104.72296802-70.25718107 202.55251975 1.59098754 31.01972606 21.20971504 141.04512285 54.61527514 250.53975893 38.70669431 126.7288241 82.45302613 206.53063585 120.36616849 218.99056672 5.83189491 1.85636788 23.33016873 7.68955733 49.0461715-22.80070258a2231.55355244 2231.55355244 0 0 1 85.63370667-97.0334107 218.5672527 218.5672527 0 0 1-11.39970403-10.60485751c-34.9952531-36.59400786-50.90253938-87.22598875-43.74503727-138.92466916 7.68955733-55.67550198 4.77296261-104.98705383 3.18197508-131.23511182-0.53076069-7.15879664-0.79614103-12.45993086-0.79614104-16.17137209-0.26408581-9.54463067-2.38583404-166.76242015 88.55159592-258.49340207 0.7948465-1.06152139 1.58969299-1.85636788 2.38583404-2.65121438z" p-id="832"></path><path d="M471.70102361 318.1959699c-5.03575387-23.59554907-17.23289347-37.11700133-37.38108713-41.62328905-44.01041762-10.07539137-105.51781452 23.06478838-118.77388643 34.72987275 0 2.65121438 0.26408581 6.09727525 0.52946616 9.81001102 1.59098754 27.57366518 4.77166807 78.74158491-3.44735541 137.59776743-5.83189491 41.88996393 6.8934163 82.99025952 35.26192797 112.41123081 22.26994189 23.06608293 51.43330007 36.05030178 81.39150474 36.05030179 3.44735541-14.04574025 9.01516453-29.15688549 15.11243979-45.06287724l2.38583404-6.37042282c3.18197507-8.21902349 6.62803595-16.16619394 10.33947717-24.65707046 18.02903451-40.55658951 40.82973709-91.19504308 14.5816791-212.88552423z" p-id="833"></path><path d="M654.09887699 1016.26149294c68.14190555-14.58167909 92.26174261-39.23745502 103.66921387-104.98834837 8.47663661-49.84360707 25.45062242-191.15281573 27.82998377-221.1110204-2.9088275-59.9177039 29.43521122-72.11354896 47.45777303-77.15059738-2.37936133-3.18197507-5.29595607-7.15879664-8.47793113-11.1356182-10.34594987-12.7253112-24.13278245-30.23005772-34.9952531-56.47682118-1.58451485-3.98329426-6.8934163-13.52145225-12.9919861-24.3981628-33.14017975-59.65232355-102.32936675-183.45808023-57.53057532-247.35131118 20.41486853-29.42873853 60.97145805-41.0938229 120.62378161-34.99654764-7.94846498-23.59554907-27.83257283-67.07520601-64.41881349-110.29077712-42.41943008-50.10769289-117.72013227-110.55486293-235.16193879-112.4112308-59.65232355-1.06152139-108.43440925 17.23289347-145.28603022 54.34989478-58.3280109 58.85747707-73.96991683 151.91406617-77.94673842 201.75767325 2.65121438-1.59098754 5.5678091-3.18197507 8.74978418-4.77296261 14.8457649-7.42288245 44.53988377-20.67895435 76.88521703-23.86092942 54.08451445-5.56651457 89.61052823 18.55850066 100.48076611 67.87264158 28.63259749 131.76457797 2.12045369 190.35667469-16.96751313 232.77610476-3.44735541 7.95364315-6.8934163 15.3765256-9.54463067 22.53532224l-2.38583404 6.3626556c-5.5678091 15.11114525-10.87023787 29.15688549-13.7868326 41.62328905 14.0509184-3.71791392 25.98138311 1.32042903 32.34533325 3.97682157 16.17137209 6.62803595 29.4209713 22.79422989 34.98878042 42.1488716 1.06152139 3.18068053 1.59098754 6.62803595 2.12045368 9.80871648 0.27185303 1.59098754 0.53076069 2.91012204 0.5307607 4.50758226-3.71144123 132.30181136 1.59098754 252.39612682 12.1945505 278.90827061 16.18043387 41.63623443 41.10159013 77.42115587 111.61767886 62.31648332z" p-id="834"></path><path d="M766.77548816 4.29244619c-36.58753517-0.7948465-68.92510119 3.71144123-92.79250331 8.74848963 55.41012163 24.39169011 95.97318384 60.71384494 123.55332172 93.05788365 50.90253938 59.12156286 75.81722295 124.60707587 77.68006353 146.34755161 0.26538035 3.44606089 0 6.09727525-0.52299347 8.48310929 0.78837381 22.80070258-2.12174823 42.15534427-5.04481565 60.71384494-2.38583404 15.11114525-4.77166807 30.75305118-5.30242875 49.04746604-0.53076069 17.23289347 1.59098754 35.52601378 3.97682156 54.87936095 5.5678091 47.45777303 12.19584507 100.74614645-20.67377619 154.55880786 0.53076069 0.80261373 1.05504869 1.33337442 1.58580939 2.12174822 1.3256072 1.59098754 2.64344715 3.18068053 3.71144122 4.77814077 126.46344375-198.84107852 170.21495372-429.4967296 130.44673801-480.13388864-51.17568695-66.0162737-124.0840824-100.74614645-216.61767806-102.60251432z m103.66921387 691.17210674c29.4209713-1.32042903 60.18308425-7.68955733 78.47491002-16.43157428 21.47638992-10.08056951 36.58753517-20.94562924 45.3360248-29.42873853-0.25890765 0-0.53076069 0-0.78966834 0.26538034-65.49069117 13.52145225-111.88694282 11.67155707-137.86832593-5.56651456-1.59098754-1.06152139-3.18197507-2.11527554-4.50758226-3.17550238-2.12045369 0.78966835-4.50628773 1.3191345-6.62803595 2.11398099-14.84705943 4.24220192-28.63259749 7.95364315-26.77752414 45.34249751 3.71273577 3.16773515 20.41486853 8.47016391 52.7602018 6.88047091z" p-id="835"></path><path d="M745.30686546 292.47996713c-33.14017975 47.4564785 31.54919221 163.84453088 59.38694321 213.42275762 7.15879664 12.7253112 12.19584507 22.00456155 14.57650093 27.83775098 2.64991984 6.36265561 5.57298725 11.93046471 8.48958199 17.23289348 19.08149413-40.56435675 14.04574025-81.65817964 9.27277765-121.42639534-2.38712857-19.88410785-4.77296261-40.29897639-4.24220192-59.91770391 0.53076069-20.14819365 3.17420784-36.85162098 5.56651457-53.02428759 2.38065588-14.8457649 4.50758226-29.16335819 4.77296261-45.07064447-62.82653139-7.68826279-88.013068 6.8934163-97.82307904 20.94562923z" p-id="836"></path></svg>