<?xml version="1.0" standalone="no"?><!DOCTYPE svg PUBLIC "-//W3C//DTD SVG 1.1//EN" "http://www.w3.org/Graphics/SVG/1.1/DTD/svg11.dtd"><svg t="1577415401940" class="icon" viewBox="0 0 1024 1024" version="1.1" xmlns="http://www.w3.org/2000/svg" p-id="856" xmlns:xlink="http://www.w3.org/1999/xlink" width="200" height="200"><defs><style type="text/css"></style></defs><path d="M992.93542749 196.00337821v-31.02809201c0-37.56032242-30.21156321-68.58841444-67.77188564-68.58841445H98.83645815c-37.56032242 0-68.58841444 31.02809202-68.58841444 68.58841445v644.24117438c0 65.32229924 53.07436844 118.39666768 118.39666768 118.39666767h722.62793322c67.77188564 0 122.47931047-54.70742604 122.47931168-122.47931047V208.25130902c0-4.082644 0-8.16528679-0.8165288-12.24793081z m-549.52384193-45.72560922c17.96363242 0 32.66114962 14.69751721 32.66114962 32.66114961s-14.69751721 32.66114962-32.66114962 32.66114963-32.66114962-14.69751721-32.66114962-32.66114963c0.8165288-17.96363242 14.69751721-32.66114962 32.66114962-32.66114961z m-137.99335648 0c17.96363242 0 32.66114962 14.69751721 32.66114962 32.66114961s-14.69751721 32.66114962-32.66114962 32.66114963-32.66114962-14.69751721-32.66114962-32.66114963c0.8165288-17.96363242 15.51404601-32.66114962 32.66114962-32.66114961z m-137.17682768 0c17.96363242 0 32.66114962 14.69751721 32.66114962 32.66114961s-14.69751721 32.66114962-32.66114962 32.66114963-32.66114962-14.69751721-32.66114961-32.66114963 14.69751721-32.66114962 32.66114961-32.66114961z m756.92214045 654.85604879c0 29.39503442-23.67933403 53.89089724-53.89089724 53.89089602H148.64471139c-27.76197681 0-49.80825324-22.04627642-49.80825324-49.80825322V261.32567745h825.5105549V805.13381778z m-476.85278348-51.44131084c4.082644 1.6330576 7.34875921 1.6330576 11.43140199 1.63305761 13.88098841 0 27.76197681-8.98181561 32.66114962-22.86280522l114.31402367-323.34538099c6.53223041-17.96363242-3.26611521-37.56032242-21.22974761-44.09255163-17.96363242-6.53223041-37.56032242 3.26611521-44.09255162 21.22974762l-114.31402368 323.34538099c-6.53223041 17.96363242 3.26611521 37.56032242 21.22974763 44.09255162z m195.15036892-10.61487441c6.53223041 6.53223041 15.51404601 9.79834439 24.49586161 9.79834561s17.96363242-3.26611521 24.49586281-9.79834561L854.12554221 581.40494324c13.06445961-13.06445961 13.06445961-35.11073602 0-48.99172442L693.26938051 371.55705712c-13.06445961-13.06445961-35.11073602-13.88098841-48.99172442 0-13.06445961 13.06445961-13.06445961 35.11073602 0 48.99172443L780.63795495 556.90908043 643.46112729 694.90243811c-13.06445961 13.06445961-13.06445961 35.11073602 0 48.17519442z m-307.01480619 0c6.53223041 6.53223041 15.51404601 9.79834439 24.49586161 9.79834561s17.96363242-3.26611521 24.49586282-9.79834561c13.06445961-13.06445961 13.88098841-35.11073602 0-48.99172322L248.26121785 556.90908043l136.36029888-137.17682768c13.06445961-13.06445961 13.06445961-35.11073602 0-48.99172443-13.06445961-13.06445961-35.11073602-13.06445961-48.99172444 0L174.7736306 533.22974762c-13.06445961 13.06445961-13.06445961 35.11073602 0 48.99172443l161.6726905 160.85616048z" fill="#151515" p-id="857"></path></svg>