<?xml version="1.0" standalone="no"?><!DOCTYPE svg PUBLIC "-//W3C//DTD SVG 1.1//EN" "http://www.w3.org/Graphics/SVG/1.1/DTD/svg11.dtd"><svg t="1577415413892" class="icon" viewBox="0 0 1024 1024" version="1.1" xmlns="http://www.w3.org/2000/svg" p-id="1239" xmlns:xlink="http://www.w3.org/1999/xlink" width="200" height="200"><defs><style type="text/css"></style></defs><path d="M107.00155433 928.39192333c-9.151936-2.033764-83.38431-19.829196-83.89275-95.078451-0.508441-87.451837-1.525323-696.564052-1.525323-702.665343v-1.016881c0-0.508441-4.067527-46.776564 24.913605-77.79146 18.303873-20.337637 46.776564-30.506455 83.89275-30.506455 128.635551 0 567.42006 1.016882 571.996028 1.016882 3.559086 0 93.044687 2.033764 94.57001 85.418073 1.525323 83.892751 1.525323 104.230387 1.525323 107.789474-0.508441 3.559086-4.575968 21.354518-21.862959 21.354518-15.761668 0-18.812314-14.744786-18.812314-23.388282l-1.016882-79.316782c0-3.559086 0.508441-29.998014-18.812314-50.335651-13.727905-14.744786-34.065541-21.862959-59.996028-21.862959H126.83075033c-21.862959 1.525323-63.555114 15.761668-63.555114 61.521351v694.530288c4.067527 23.388282 25.422046 68.131082 76.266137 68.131082h140.329692c3.559086 0.508441 18.812314 2.542205 18.812314 21.354518 0 19.320755-14.236346 20.846077-16.77855 20.846078H107.00155433zM776.10979733 790.60443533c-4.575968 0-8.135055-3.050645-8.135055-3.050645-1.016882-1.016882-112.365442-112.873883-126.093347-127.61867-5.084409-5.084409-9.660377-11.1857-13.727904-17.795431-3.050645-5.084409-5.084409-11.1857-5.084409-16.778551V502.31843733c0-3.559086 5.59285-17.286991 21.862959-17.286991 3.559086 0 8.135055 1.016882 13.219464 7.626614 3.559086 5.084409 5.59285 11.1857 5.59285 17.795432v97.112214c0 20.337637 8.135055 29.489573 12.711023 33.557101 1.016882 1.016882 2.033764 1.525323 3.050645 2.542204l104.230387 109.823238c1.016882 1.016882 2.033764 2.033764 3.050646 3.559086 5.59285 8.135055 10.168818 19.320755 1.525323 27.96425-4.575968 3.559086-8.643496 5.59285-12.202582 5.59285z" p-id="1240"></path><path d="M675.43849633 993.47236033c-175.920556 0-319.300894-143.380338-319.300894-319.300894s143.380338-319.300894 319.300894-319.300894 319.300894 143.380338 319.300894 319.300894c0.508441 175.920556-142.871897 319.300894-319.300894 319.300894z m0-594.875869c-152.023833 0-275.574975 123.551142-275.574975 275.574975s123.551142 275.574975 275.574975 275.574975 275.574975-123.551142 275.574975-275.574975-123.551142-275.574975-275.574975-275.574975zM200.04624233 463.67692833c-9.151936 0-16.270109-6.609732-16.27011-15.253228v-14.236345c0-8.643496 7.118173-15.253227 16.27011-15.253228h88.977159c9.151936 0 16.270109 6.609732 16.27011 15.253228v14.236345c0 8.643496-7.118173 15.253227-16.27011 15.253228H200.04624233z m0-200.834161c-8.135055 0-16.270109-4.067527-16.27011-13.219464v-14.236345c0-9.660377 8.135055-13.727905 16.27011-13.727905h420.989076c7.626614 0 16.270109 4.067527 16.270109 13.727905v14.236345c0 9.151936-8.135055 13.219464-16.270109 13.219464H200.04624233z" p-id="1241"></path></svg>