<?xml version="1.0" standalone="no"?><!DOCTYPE svg PUBLIC "-//W3C//DTD SVG 1.1//EN" "http://www.w3.org/Graphics/SVG/1.1/DTD/svg11.dtd"><svg t="1502257566638" class="icon" style="" viewBox="0 0 1024 1024" version="1.1" xmlns="http://www.w3.org/2000/svg" p-id="1072" xmlns:xlink="http://www.w3.org/1999/xlink" width="200" height="200"><defs><style type="text/css"></style></defs><path d="M915.28202 861.464v53.818c0 59.456-48.184 107.666-107.642 107.694H215.33602c-59.456-0.028-107.642-48.238-107.642-107.694v-53.818H53.81802A53.844 53.844 0 0 1 15.74002 845.68 53.832 53.832 0 0 1 0.00002 807.584V484.55c0-29.72 24.098-53.818 53.818-53.818h53.876V107.694C107.69402 48.194 155.89002 0 215.33602 0h484.61L915.34002 215.394v215.338h53.818c29.72 0 53.818 24.098 53.818 53.818v323.032a53.828 53.828 0 0 1-15.74 38.096 53.844 53.844 0 0 1-38.078 15.784h-53.876zM161.51802 915.282c0 29.722 24.098 53.878 53.818 53.878H807.64002a53.808 53.808 0 0 0 38.076-15.786 53.814 53.814 0 0 0 15.746-38.092v-53.818H161.51802v53.818z m699.946-646.068h-107.7a107.7 107.7 0 0 1-107.696-107.694V53.82H215.39402a53.82 53.82 0 0 0-53.822 53.876v323.038h699.944v-161.518h-0.052zM104.74402 711.936c0.906 43.76 29.78 94.74 118.948 94.74 75.018 0 121.392-37.906 121.392-98.32 0-56.662-37.512-78.54-81.836-87.75l-45.98-10.17c-27.052-5.4-41.258-16.712-41.258-34.272 0-22.562 19.322-36.994 50.35-36.994 35.068 0 52.628 19.604 54.164 40.35h59.9c-0.63-53.652-46.15-92.636-113.836-92.636-64.106 0-114.744 33.814-114.744 94.68 0 52.798 35.522 77.18 78.146 86.384l45.462 10.174c30.692 6.76 46.208 16.482 46.208 36.94 0 22.848-19.098 38.642-54.842 38.642-38.42 0-58.54-19.886-60.36-41.77H104.74402z m293.764-58.366c0 80.7 47.624 131.85 122.642 131.85a134.15 134.15 0 0 0 41.204-6.538l19.662 28.414h58.652l-35.238-52.622c24.668-22.96 38.536-57.516 38.536-101.106v-34.102c0-80.812-47.628-132.192-122.818-132.192-75.018 0-122.642 51.15-122.642 132.192v34.104z m58.818-34.496c0-53.082 27.164-79.794 63.822-79.794 36.886 0 63.994 26.712 63.994 79.794v35.574c0 22.106-5.172 39.16-13.468 51.604l-13.074-16.024h-53.988l30.634 44.438a46.696 46.696 0 0 1-15.746 2.732c-35.858-1.082-62.174-28.02-62.174-82.75v-35.574z m462.048 128.612h-131.396V486.824h-66.95v320.474h198.346v-59.672 0.06z m0 0" p-id="1073"></path></svg>