<?xml version="1.0" standalone="no"?><!DOCTYPE svg PUBLIC "-//W3C//DTD SVG 1.1//EN" "http://www.w3.org/Graphics/SVG/1.1/DTD/svg11.dtd"><svg t="1504679613975" class="icon" style="" viewBox="0 0 1024 1024" version="1.1" xmlns="http://www.w3.org/2000/svg" p-id="920" xmlns:xlink="http://www.w3.org/1999/xlink" width="200" height="200"><defs><style type="text/css"></style></defs><path d="M0 192v704h1024V192H0z m384 448V512h256v128H384z m256 64v128H384V704h256z m0-384v128H384V320h256z m-320 0v128H64V320h256zM64 512h256v128H64V512z m640 0h256v128H704V512z m0-64V320h256v128H704zM64 704h256v128H64V704z m640 128V704h256v128H704z" p-id="921"></path></svg>