<?xml version="1.0" standalone="no"?><!DOCTYPE svg PUBLIC "-//W3C//DTD SVG 1.1//EN" "http://www.w3.org/Graphics/SVG/1.1/DTD/svg11.dtd"><svg class="icon" width="200px" height="200.00px" viewBox="0 0 1024 1024" version="1.1" xmlns="http://www.w3.org/2000/svg"><path fill="#333333" d="M605.036 395.706H46.818C18.908 395.706 0.3 377.098 0.3 349.188V70.078c0-27.91 18.606-46.518 46.518-46.518h558.218c27.91 0 46.518 18.608 46.518 46.518v279.108c0 27.912-18.608 46.52-46.518 46.52z m372.146 0H791.11c-27.91 0-46.518-18.608-46.518-46.518V70.078c0-27.91 18.608-46.518 46.518-46.518h186.072c27.91 0 46.516 18.608 46.516 46.518v279.108c0 27.912-18.606 46.52-46.516 46.52z m-511.7 604.734h511.7c27.91 0 46.516-18.606 46.516-46.518V535.26c0-27.91-18.606-46.518-46.516-46.518h-511.7c-27.91 0-46.516 18.608-46.516 46.518v418.662c-0.002 27.912 18.604 46.518 46.516 46.518z m-418.664 0H279.41c27.91 0 46.516-18.606 46.516-46.518V535.26c0-27.91-18.606-46.518-46.516-46.518H46.818C18.908 488.742 0.3 507.35 0.3 535.26v418.662c0.002 27.912 18.608 46.518 46.518 46.518z" /></svg>