<?xml version="1.0" standalone="no"?><!DOCTYPE svg PUBLIC "-//W3C//DTD SVG 1.1//EN" "http://www.w3.org/Graphics/SVG/1.1/DTD/svg11.dtd"><svg t="1577415409983" class="icon" viewBox="0 0 1024 1024" version="1.1" xmlns="http://www.w3.org/2000/svg" p-id="1110" xmlns:xlink="http://www.w3.org/1999/xlink" width="200" height="200"><defs><style type="text/css"></style></defs><path d="M965.45180053 407.99388693L965.45180053 99.85919893c0-27.2281312-22.0728512-49.3009824-49.3009824-49.3009824L571.0406656 50.55821653c-27.2281312 0-49.3009824 22.0728512-49.3009824 49.3009824l0 308.1335968c0 27.2281312 22.0728512 49.3009824 49.3009824 49.3009824l345.11015146 0C943.37894933 457.29486933 965.45180053 435.22201813 965.45180053 407.99388693zM866.84874346 334.04077547c0 13.6146112-11.0364256 24.6510368-24.6510368 24.6510368l-197.20611306 0c-13.6146112 0-24.6510368-11.0364256-24.6510368-24.6510368L620.3405568 173.81121813c0-13.6146112 11.0364256-24.6510368 24.6510368-24.6510368l197.20611306 0c13.6146112 0 24.6510368 11.0364256 24.6510368 24.6510368L866.84874346 334.04077547z" p-id="1111"></path><path d="M471.38210346 566.70513067L126.27085973 566.70513067c-27.2281312 0-49.3009824 22.0728512-49.3009824 49.3009824l0 308.1335968c0 27.2281312 22.0728512 49.3009824 49.3009824 49.3009824l345.11015147 0c27.2281312 0 49.3009824-22.0728512 49.3009824-49.3009824L520.68199466 616.00611307C520.68308586 588.77798187 498.61023466 566.70513067 471.38210346 566.70513067zM422.0800288 850.18878187c0 13.6146112-11.0364256 24.6510368-24.6510368 24.6510368l-197.20611307 0c-13.6146112 0-24.6510368-11.0364256-24.6510368-24.6510368L175.57184213 689.95922453c0-13.6146112 11.0364256-24.6510368 24.6510368-24.6510368l197.20611307 0c13.6146112 0 24.6510368 11.0364256 24.6510368 24.6510368L422.0800288 850.18878187z" fill="#00D8A0" p-id="1112"></path><path d="M184.4525024 477.20758933l134.6310752-157.3337376L240.11817706 319.87385173c0.64727573-88.6996352 69.9079136-160.40201813 155.28385067-160.40201813l36.62180907 0L432.0238368 51.27534933l-36.62180907 0c-141.8689888 0-256.8755072 119.69789973-256.8755072 267.35307094 0 0.4169632 0.00873173 0.83174293 0.01528107 1.24652373L49.8214272 319.87494293 184.4525024 477.20758933z" p-id="1113"></path><path d="M1016.84523946 704.84328107L882.21416426 547.50954347 747.5819968 704.84328107l78.9664928 0c-0.64727573 88.6996352-69.9079136 160.40201813-155.28385067 160.40201813l-36.62180907 0 0 108.19757547 36.62180907 0c141.8689888 0 256.8755072-119.69789973 256.8755072-267.35307094 0-0.4169632-0.00873173-0.83174293-0.01528107-1.24652373L1016.84523946 704.84328107z" p-id="1114"></path></svg>