<?xml version="1.0" standalone="no"?><!DOCTYPE svg PUBLIC "-//W3C//DTD SVG 1.1//EN" "http://www.w3.org/Graphics/SVG/1.1/DTD/svg11.dtd"><svg t="1577415420669" class="icon" viewBox="0 0 1024 1024" version="1.1" xmlns="http://www.w3.org/2000/svg" p-id="1492" xmlns:xlink="http://www.w3.org/1999/xlink" width="200" height="200"><defs><style type="text/css"></style></defs><path d="M425.5625 676.25c1.03125 1.96875 2.34375 3.84375 3.84375 5.53125 0.09375 0.09375 0.09375 0.1875 0.1875 0.1875 0.1875 0.28125 0.46875 0.46875 0.65625 0.75l0.46875 0.46875 0.46875 0.46875c0.28125 0.1875 0.46875 0.46875 0.75 0.65625 0.09375 0.09375 0.1875 0.09375 0.1875 0.1875 3 2.71875 6.5625 4.6875 10.3125 5.90625h0.09375c0.375 0.09375 0.75 0.28125 1.21875 0.375 0.09375 0 0.1875 0.09375 0.28125 0.09375 0.28125 0.09375 0.65625 0.1875 0.9375 0.28125 0.1875 0 0.375 0.09375 0.46875 0.09375 0.28125 0.09375 0.46875 0.09375 0.75 0.1875 0.1875 0 0.46875 0.09375 0.65625 0.09375s0.375 0.09375 0.65625 0.09375c0.28125 0 0.5625 0.09375 0.84375 0.09375 0.1875 0 0.375 0 0.5625 0.09375 0.28125 0 0.5625 0.09375 0.84375 0.09375h4.3125c0.28125 0 0.5625-0.09375 0.84375-0.09375 0.1875 0 0.375 0 0.5625-0.09375 0.28125 0 0.5625-0.09375 0.84375-0.09375 0.1875 0 0.375-0.09375 0.65625-0.09375 0.1875 0 0.46875-0.09375 0.65625-0.09375 0.28125-0.09375 0.46875-0.09375 0.75-0.1875 0.1875 0 0.375-0.09375 0.46875-0.09375 0.28125-0.09375 0.65625-0.1875 0.9375-0.28125 0.09375 0 0.1875-0.09375 0.28125-0.09375 0.375-0.09375 0.75-0.1875 1.21875-0.375h0.09375c3.75-1.21875 7.3125-3.28125 10.3125-5.90625 0.09375-0.09375 0.1875-0.09375 0.1875-0.1875 0.28125-0.1875 0.46875-0.46875 0.75-0.65625l0.46875-0.46875 0.46875-0.46875c0.1875-0.28125 0.46875-0.46875 0.65625-0.75 0.09375-0.09375 0.09375-0.1875 0.1875-0.1875 1.5-1.6875 2.8125-3.5625 3.84375-5.53125l149.625-259.125c8.25-14.34375 3.375-32.71875-10.96875-40.96875-14.34375-8.34375-32.71875-3.375-40.96875 10.96875L452 602 327.96875 387.21875c-8.34375-14.34375-26.625-19.3125-40.96875-10.96875-14.34375 8.25-19.3125 26.625-10.96875 40.96875l149.53125 259.03125zM272 812h360c16.59375 0 30-13.40625 30-30s-13.40625-30-30-30H272c-16.59375 0-30 13.40625-30 30s13.40625 30 30 30z" p-id="1493"></path><path d="M752 152H152c-33.09375 0-60 26.90625-60 60v720c0 33.09375 26.90625 60 60 60h600c33.09375 0 60-26.90625 60-60V212c0-33.09375-26.90625-60-60-60z m0 780H152V212h600v720z" p-id="1494"></path><path d="M872 32H242c-16.59375 0-30 13.40625-30 30s13.40625 30 30 30h630v750c0 16.59375 13.40625 30 30 30s30-13.40625 30-30V92c0-33.09375-26.90625-60-60-60z" p-id="1495"></path></svg>