<?xml version="1.0" standalone="no"?><!DOCTYPE svg PUBLIC "-//W3C//DTD SVG 1.1//EN" "http://www.w3.org/Graphics/SVG/1.1/DTD/svg11.dtd"><svg t="1577935328793" class="icon" viewBox="0 0 1024 1024" version="1.1" xmlns="http://www.w3.org/2000/svg" p-id="977" xmlns:xlink="http://www.w3.org/1999/xlink" width="200" height="200"><defs><style type="text/css"></style></defs><path d="M931.4304 418.79324445V331.41191111l-314.5728-314.5728H92.5696v401.95413334H16.25656889v454.38293333H92.5696v133.98471111h838.8608v-133.98471111h75.14794667V418.79324445H931.4304z m-244.66773333-233.0168889l75.73048888 75.7304889h-75.73048888V185.77635555zM162.47466667 86.74417778h454.38293333v244.66773333h244.66773333v87.38133334H162.47466667V86.74417778z m-46.02083556 390.88583111h83.30353778l42.52558222 75.14794666c4.07779555 6.99050667 7.57304889 13.39847111 11.06830222 19.80643556 3.49525333-6.40796445 6.99050667-12.81592889 11.65084445-19.80643556L308.11022222 477.63000889h83.30353778l-96.70200889 154.95623111 85.05116444 140.39267555 20.38897778-295.34890666h75.14794667l52.4288 148.54826666c4.66033778 14.56355555 9.32067555 27.96202667 12.81592889 39.61287112 4.07779555-12.23338667 8.73813333-25.04931555 13.39847111-39.61287112l54.75896889-148.54826666h75.14794666l19.80643556 317.48551111h-70.48760889l-8.15559111-140.97521778c-0.58254222-8.15559111-1.16508445-16.89372445-1.16508444-25.63185777-1.74762667 5.24288-4.07779555 10.48576-5.82542222 16.31118222l-54.17642667 148.54826666h-52.4288l-49.51608889-146.21809778c-1.16508445-4.07779555-2.33016889-7.57304889-3.49525334-11.06830222-0.58254222 7.57304889-0.58254222 14.56355555-1.16508444 21.55406222l-8.73813333 137.47996445H309.85784889l-41.36049778-71.07015111c-6.40796445-10.48576-12.23338667-19.80643555-17.47626666-28.54456889-4.66033778 8.15559111-9.90321778 17.47626667-16.31118223 29.12711111l-39.03032889 71.07015111H112.95857778l97.28455111-160.78165333-93.78929778-157.2864zM861.52533333 937.25582222H162.47466667v-64.07964444h699.05066666v64.07964444z m55.34151112-141.55776h-192.23893334V477.63000889h71.65269334v252.24078222h120.58624v65.82727111z" p-id="978"></path></svg>