<?xml version="1.0" standalone="no"?><!DOCTYPE svg PUBLIC "-//W3C//DTD SVG 1.1//EN" "http://www.w3.org/Graphics/SVG/1.1/DTD/svg11.dtd"><svg t="1516697609362" class="icon" style="" viewBox="0 0 1024 1024" version="1.1" xmlns="http://www.w3.org/2000/svg" p-id="1198" xmlns:xlink="http://www.w3.org/1999/xlink" width="200" height="200"><defs><style type="text/css"></style></defs><path d="M650.738 16.1l253.534 257.212c21.166 21.452 13.974 39.02-15.934 39.02H721.712c-24.272 264.61-333.376 349.27-476.548 297.216 267.59-44.252 283.322-240.256 281.28-297.216H336.28c-29.95 0-37.142-17.57-15.934-39.062L573.758 16.1a54.012 54.012 0 0 1 76.94 0h0.04z" p-id="1199"></path><path d="M296.974 0v61.29H163.28c-56.364 0.18-101.964 45.91-101.986 102.272v694.372c0.112 56.484 45.91 102.228 102.394 102.272H860.32a101.914 101.914 0 0 0 72.346-29.644 101.892 101.892 0 0 0 30.048-72.178V434.896h61.29v423.488a163.2 163.2 0 0 1-163.684 163.112H163.688C73.354 1021.45 0.116 948.268 0.004 857.934V163.562C0.026 73.35 73.068 0.182 163.28 0h133.694z" p-id="1200"></path></svg>