<?xml version="1.0" standalone="no"?><!DOCTYPE svg PUBLIC "-//W3C//DTD SVG 1.1//EN" "http://www.w3.org/Graphics/SVG/1.1/DTD/svg11.dtd"><svg t="1577761311969" class="icon" viewBox="0 0 1024 1024" version="1.1" xmlns="http://www.w3.org/2000/svg" p-id="1259" xmlns:xlink="http://www.w3.org/1999/xlink" width="200" height="200"><defs><style type="text/css"></style></defs><path d="M449.422222 802.133333c-28.444444-130.844444 39.822222-256 164.977778-312.888889s261.688889-5.688889 335.644444 102.4c73.955556 108.088889 56.888889 256-34.133333 352.711112-56.888889 51.2-125.155556 73.955556-199.111111 73.955555-130.844444 5.688889-238.933333-91.022222-267.377778-216.177778z m267.377778 153.6c119.466667 0 204.8-91.022222 204.8-204.8s-91.022222-204.8-204.8-204.8S512 631.466667 512 745.244444s85.333333 210.488889 204.8 210.488889zM580.266667 261.688889c0 5.688889 0 17.066667-11.377778 28.444444 0 5.688889-5.688889 5.688889-11.377778 5.688889 0 0-5.688889 0-5.688889 5.688889H256c-11.377778 5.688889-17.066667-5.688889-28.444444-11.377778-11.377778-11.377778-11.377778-22.755556-11.377778-28.444444 0-5.688889 0-17.066667 11.377778-28.444445 11.377778-5.688889 17.066667-11.377778 28.444444-11.377777h290.133333c5.688889 0 17.066667 5.688889 22.755556 11.377777 11.377778 11.377778 11.377778 22.755556 11.377778 28.444445zM585.955556 438.044444c0 5.688889 0 17.066667-11.377778 28.444445 0 0-5.688889 5.688889-11.377778 5.688889s-5.688889 0-5.688889 5.688889H261.688889c-11.377778 0-17.066667-5.688889-28.444445-17.066667C227.555556 455.111111 227.555556 443.733333 227.555556 438.044444s0-17.066667 11.377777-28.444444c5.688889-5.688889 17.066667-17.066667 28.444445-17.066667h290.133333c11.377778 0 17.066667 11.377778 28.444445 17.066667v28.444444z" fill="#2c2c2c" p-id="1260"></path><path d="M762.311111 745.244444l45.511111 51.2c5.688889 5.688889 11.377778 11.377778 11.377778 28.444445 0 11.377778-5.688889 22.755556-11.377778 28.444444-11.377778 11.377778-34.133333 11.377778-45.511111 0l-45.511111-56.888889-45.511111 51.2c-11.377778 11.377778-34.133333 11.377778-45.511111 0-11.377778-11.377778-11.377778-34.133333 0-51.2l45.511111-51.2-45.511111-45.511111c-11.377778-11.377778-11.377778-34.133333 0-51.2 11.377778-11.377778 34.133333-11.377778 45.511111 0l45.511111 51.2 45.511111-51.2c11.377778-11.377778 34.133333-11.377778 45.511111 0 5.688889 5.688889 11.377778 11.377778 11.377778 28.444445s-5.688889 22.755556-11.377778 28.444444l-45.511111 39.822222z" fill="#2c2c2c" p-id="1261"></path><path d="M790.755556 193.422222v170.666667c0 28.444444-17.066667 45.511111-45.511112 45.511111-22.755556 0-45.511111-17.066667-45.511111-45.511111v-170.666667c0-39.822222-22.755556-62.577778-62.577777-62.577778H164.977778c-34.133333 0-62.577778 22.755556-62.577778 62.577778v620.088889c0 34.133333 22.755556 62.577778 62.577778 62.577778h238.933333c28.444444 0 45.511111 17.066667 45.511111 45.511111 0 22.755556-17.066667 45.511111-45.511111 45.511111H164.977778C85.333333 967.111111 17.066667 898.844444 17.066667 819.2v-625.777778C17.066667 113.777778 85.333333 45.511111 164.977778 45.511111h483.555555c79.644444 5.688889 142.222222 68.266667 142.222223 147.911111z" fill="#2c2c2c" p-id="1262"></path></svg>