<?xml version="1.0" standalone="no"?><!DOCTYPE svg PUBLIC "-//W3C//DTD SVG 1.1//EN" "http://www.w3.org/Graphics/SVG/1.1/DTD/svg11.dtd"><svg class="icon" width="200px" height="186.69px" viewBox="0 0 1097 1024" version="1.1" xmlns="http://www.w3.org/2000/svg"><path fill="#000000" d="M394.808889 884.053333h126.293333l183.182222-325.404444h95.573334c13.653333 51.2 61.44 88.746667 118.328889 88.746667 67.128889 0 122.88-53.475556 122.88-118.328889s-54.613333-118.328889-122.88-118.328889c-56.888889 0-104.675556 37.546667-118.328889 88.746666h-95.573334L521.102222 174.08H394.808889c-13.653333-51.2-61.44-88.746667-118.328889-88.746667-67.128889 0-122.88 53.475556-122.88 118.328889s54.613333 118.328889 122.88 118.328889c56.888889 0 104.675556-37.546667 118.328889-88.746667h95.573333l152.462222 266.24H394.808889c-13.653333-51.2-61.44-88.746667-118.328889-88.746666-67.128889 0-122.88 53.475556-122.88 118.328889s54.613333 118.328889 122.88 118.328889c56.888889 0 104.675556-37.546667 118.328889-88.746667h249.173333L490.382222 824.888889h-95.573333c-13.653333-51.2-61.44-88.746667-118.328889-88.746667-67.128889 0-122.88 53.475556-122.88 118.328889s54.613333 118.328889 122.88 118.328889c56.888889 0 104.675556-37.546667 118.328889-88.746667z"  /></svg>